<svg xmlns="http://www.w3.org/2000/svg" width="366" height="117" viewBox="0 0 366 117">
    <g fill="none" fill-rule="evenodd">
        <g stroke="#162843" stroke-linecap="round" stroke-linejoin="round" stroke-width="2" transform="translate(344 43)">
            <circle cx="10.6" cy="6.7" r="5.9"/>
            <path d="M20.8 26c0-5.5-4.7-10-10.2-10C5.1 16 .4 20.5.4 26v4.8h20.5l-.1-4.8z"/>
        </g>
        <g stroke="#162843" stroke-linecap="round" stroke-linejoin="round" stroke-width="2" transform="translate(344 84)">
            <circle cx="10.6" cy="6.7" r="5.9"/>
            <path d="M20.8 26c0-5.5-4.7-10-10.2-10C5.1 16 .4 20.5.4 26v4.8h20.5l-.1-4.8z"/>
        </g>
        <g stroke="#162843" stroke-linecap="round" stroke-linejoin="round" stroke-width="2" transform="translate(344 1)">
            <circle cx="10.6" cy="6.7" r="5.9"/>
            <path d="M20.8 26c0-5.5-4.7-10-10.2-10C5.1 16 .4 20.5.4 26v4.8h20.5l-.1-4.8z"/>
        </g>
        <path stroke="#122844" stroke-width="2" d="M123.8 73.9H18c-9.3 0-16.8-7.5-16.8-16.8S8.7 40.3 18 40.3h105.8c9.3 0 16.8 7.5 16.8 16.8.1 9.3-7.5 16.8-16.8 16.8z"/>
        <g fill="#122844" fill-rule="nonzero">
            <path d="M21.9 62.9c-.6 0-1.2-.1-1.7-.4-.5-.3-.9-.6-1.3-1.1-.4-.5-.6-1.1-.8-1.9-.2-.7-.3-1.6-.3-2.6s.1-1.8.3-2.6c.2-.7.5-1.3.8-1.8.3-.5.8-.9 1.3-1.1.5-.2 1.1-.4 1.7-.4.6 0 1.2.1 1.7.4.5.2.9.6 1.3 1.1.4.5.6 1.1.8 1.8.2.8.3 1.7.3 2.7 0 1-.1 1.8-.3 2.6-.2.7-.5 1.4-.8 1.9-.4.5-.8.9-1.3 1.1-.5.2-1 .3-1.7.3zm0-2c.2 0 .4-.1.6-.2.2-.1.4-.3.5-.6.1-.3.3-.7.3-1.2.1-.5.1-1.1.1-1.9 0-.8 0-1.4-.1-1.9s-.2-.9-.3-1.2c-.1-.3-.3-.5-.5-.6-.2-.1-.4-.2-.6-.2-.2 0-.4.1-.6.2-.2.1-.4.3-.5.6-.1.3-.3.7-.3 1.2s-.1 1.1-.1 1.9c0 .8 0 1.4.1 1.9s.2.9.3 1.2c.1.3.3.5.5.6.2.1.4.2.6.2zM28 62.7v-2.1h2.5V54h-2.1v-1.6c.6-.1 1.2-.3 1.6-.4.4-.2.9-.4 1.3-.6h1.9v9.3h2.1v2.1H28v-.1zM44.6 62.9c-.6 0-1.2-.1-1.7-.4-.5-.3-.9-.6-1.3-1.1-.4-.5-.6-1.1-.8-1.9-.2-.7-.3-1.6-.3-2.6s.1-1.8.3-2.6c.2-.7.5-1.3.8-1.8.3-.5.8-.9 1.3-1.1.5-.2 1.1-.4 1.7-.4.6 0 1.2.1 1.7.4.5.2.9.6 1.3 1.1.4.5.6 1.1.8 1.8.2.7.3 1.6.3 2.6s-.1 1.8-.3 2.6c-.2.7-.5 1.4-.8 1.9-.4.5-.8.9-1.3 1.1-.6.3-1.1.4-1.7.4zm0-2c.2 0 .4-.1.6-.2.2-.1.4-.3.5-.6.1-.3.3-.7.3-1.2.1-.5.1-1.1.1-1.9 0-.8 0-1.4-.1-1.9s-.2-.9-.3-1.2c-.1-.3-.3-.5-.5-.6-.2-.1-.4-.2-.6-.2-.2 0-.4.1-.6.2-.2.1-.4.3-.5.6-.1.3-.3.7-.3 1.2S43 56.2 43 57c0 .8 0 1.4.1 1.9s.2.9.3 1.2c.1.3.3.5.5.6.2.1.4.2.7.2zM54.1 62.9c-.6 0-1.2-.1-1.7-.4-.5-.3-.9-.6-1.3-1.1-.4-.5-.6-1.1-.8-1.9-.2-.7-.3-1.6-.3-2.5 0-1 .1-1.8.3-2.6.2-.7.5-1.3.8-1.8.3-.5.8-.9 1.3-1.1.5-.2 1.1-.4 1.7-.4.6 0 1.2.1 1.7.4.5.2.9.6 1.3 1.1.4.5.6 1.1.8 1.8.2.7.3 1.6.3 2.6s-.1 1.8-.3 2.6c-.2.7-.5 1.4-.8 1.9-.4.5-.8.9-1.3 1.1-.6.2-1.1.3-1.7.3zm0-2c.2 0 .4-.1.6-.2.2-.1.4-.3.5-.6.1-.3.3-.7.3-1.2.1-.5.1-1.1.1-1.9 0-.8 0-1.4-.1-1.9s-.2-.9-.3-1.2c-.1-.3-.3-.5-.5-.6-.2-.1-.4-.2-.6-.2-.2 0-.4.1-.6.2-.2.1-.4.3-.5.6-.1.3-.3.7-.3 1.2s-.1 1.1-.1 1.9c0 .8 0 1.4.1 1.9s.2.9.3 1.2c.1.3.3.5.5.6.1.1.3.2.6.2zM67.2 62.9c-.6 0-1.2-.1-1.7-.4-.5-.3-.9-.6-1.3-1.1-.4-.5-.6-1.1-.8-1.9-.2-.7-.3-1.6-.3-2.6s.1-1.8.3-2.6c.2-.7.5-1.3.8-1.8.3-.5.8-.9 1.3-1.1.5-.2 1.1-.4 1.7-.4.6 0 1.2.1 1.7.4.5.2.9.6 1.3 1.1.4.5.6 1.1.8 1.8.2.7.3 1.6.3 2.6s-.1 1.8-.3 2.6c-.2.7-.5 1.4-.8 1.9-.4.5-.8.9-1.3 1.1-.6.3-1.1.4-1.7.4zm0-2c.2 0 .4-.1.6-.2.2-.1.4-.3.5-.6.1-.3.3-.7.3-1.2.1-.5.1-1.1.1-1.9 0-.8 0-1.4-.1-1.9s-.2-.9-.3-1.2c-.1-.3-.3-.5-.5-.6-.2-.1-.4-.2-.6-.2-.2 0-.4.1-.6.2-.2.1-.4.3-.5.6-.1.3-.3.7-.3 1.2s-.1 1.1-.1 1.9c0 .8 0 1.4.1 1.9s.2.9.3 1.2c.1.3.3.5.5.6.1.1.3.2.6.2zM76.7 62.9c-.6 0-1.2-.1-1.7-.4-.5-.3-.9-.6-1.3-1.1-.4-.5-.6-1.1-.8-1.9-.2-.7-.3-1.6-.3-2.6s.1-1.8.3-2.6c.2-.7.5-1.3.8-1.8.3-.5.8-.9 1.3-1.1.5-.2 1.1-.4 1.7-.4.6 0 1.2.1 1.7.4.5.2.9.6 1.3 1.1.4.5.6 1.1.8 1.8.2.7.3 1.6.3 2.6s-.1 1.8-.3 2.6c-.2.7-.5 1.4-.8 1.9-.4.5-.8.9-1.3 1.1-.6.3-1.1.4-1.7.4zm0-2c.2 0 .4-.1.6-.2.2-.1.4-.3.5-.6.1-.3.3-.7.3-1.2.1-.5.1-1.1.1-1.9 0-.8 0-1.4-.1-1.9s-.2-.9-.3-1.2c-.1-.3-.3-.5-.5-.6-.2-.1-.4-.2-.6-.2-.2 0-.4.1-.6.2-.2.1-.4.3-.5.6-.1.3-.3.7-.3 1.2s-.1 1.1-.1 1.9c0 .8 0 1.4.1 1.9s.2.9.3 1.2c.1.3.3.5.5.6.1.1.3.2.6.2zM89.8 62.9c-.6 0-1.2-.1-1.7-.4-.5-.3-.9-.6-1.3-1.1-.4-.5-.6-1.1-.8-1.9-.2-.7-.3-1.6-.3-2.6s.1-1.8.3-2.6c.2-.7.5-1.3.8-1.8.3-.5.8-.9 1.3-1.1.5-.2 1.1-.4 1.7-.4.6 0 1.2.1 1.7.4.5.2.9.6 1.3 1.1.4.5.6 1.1.8 1.8.2.7.3 1.6.3 2.6s-.1 1.8-.3 2.6c-.2.7-.5 1.4-.8 1.9-.4.5-.8.9-1.3 1.1-.6.3-1.1.4-1.7.4zm0-2c.2 0 .4-.1.6-.2.2-.1.4-.3.5-.6.1-.3.3-.7.3-1.2.1-.5.1-1.1.1-1.9 0-.8 0-1.4-.1-1.9s-.2-.9-.3-1.2c-.1-.3-.3-.5-.5-.6-.2-.1-.4-.2-.6-.2-.2 0-.4.1-.6.2-.2.1-.4.3-.5.6-.1.3-.3.7-.3 1.2s-.1 1.1-.1 1.9c0 .8 0 1.4.1 1.9s.2.9.3 1.2c.1.3.3.5.5.6.1.1.4.2.6.2zM99.3 62.9c-.6 0-1.2-.1-1.7-.4-.5-.3-.9-.6-1.3-1.1-.4-.5-.6-1.1-.8-1.9-.2-.7-.3-1.6-.3-2.6s.1-1.8.3-2.6c.2-.7.5-1.3.8-1.8.3-.5.8-.9 1.3-1.1.5-.2 1.1-.4 1.7-.4.6 0 1.2.1 1.7.4.5.2.9.6 1.3 1.1.4.5.6 1.1.8 1.8.2.7.3 1.6.3 2.6s-.1 1.8-.3 2.6c-.2.7-.5 1.4-.8 1.9-.4.5-.8.9-1.3 1.1-.6.3-1.1.4-1.7.4zm0-2c.2 0 .4-.1.6-.2.2-.1.4-.3.5-.6.1-.3.3-.7.3-1.2.1-.5.1-1.1.1-1.9 0-.8 0-1.4-.1-1.9s-.2-.9-.3-1.2c-.1-.3-.3-.5-.5-.6-.2-.1-.4-.2-.6-.2-.2 0-.4.1-.6.2-.2.1-.4.3-.5.6-.1.3-.3.7-.3 1.2s-.1 1.1-.1 1.9c0 .8 0 1.4.1 1.9s.2.9.3 1.2c.1.3.3.5.5.6.2.1.4.2.6.2zM112.4 62.9c-.6 0-1.2-.1-1.7-.4-.5-.3-.9-.6-1.3-1.1-.4-.5-.6-1.1-.8-1.9-.2-.7-.3-1.6-.3-2.6s.1-1.8.3-2.6c.2-.7.5-1.3.8-1.8.3-.5.8-.9 1.3-1.1.5-.2 1.1-.4 1.7-.4.6 0 1.2.1 1.7.4.5.2.9.6 1.3 1.1.4.5.6 1.1.8 1.8.2.7.3 1.6.3 2.6s-.1 1.8-.3 2.6c-.2.7-.5 1.4-.8 1.9-.4.5-.8.9-1.3 1.1-.6.3-1.1.4-1.7.4zm0-2c.2 0 .4-.1.6-.2.2-.1.4-.3.5-.6.1-.3.3-.7.3-1.2.1-.5.1-1.1.1-1.9 0-.8 0-1.4-.1-1.9s-.2-.9-.3-1.2c-.1-.3-.3-.5-.5-.6-.2-.1-.4-.2-.6-.2-.2 0-.4.1-.6.2-.2.1-.4.3-.5.6-.1.3-.3.7-.3 1.2s-.1 1.1-.1 1.9c0 .8 0 1.4.1 1.9s.2.9.3 1.2c.1.3.3.5.5.6.2.1.4.2.6.2zM121.9 62.9c-.6 0-1.2-.1-1.7-.4-.5-.3-.9-.6-1.3-1.1-.4-.5-.6-1.1-.8-1.9-.2-.7-.3-1.6-.3-2.6s.1-1.8.3-2.6c.2-.7.5-1.3.8-1.8.3-.5.8-.9 1.3-1.1.5-.2 1.1-.4 1.7-.4.6 0 1.2.1 1.7.4.5.2.9.6 1.3 1.1.4.5.6 1.1.8 1.8.2.7.3 1.6.3 2.6s-.1 1.8-.3 2.6c-.2.7-.5 1.4-.8 1.9-.4.5-.8.9-1.3 1.1-.6.3-1.1.4-1.7.4zm0-2c.2 0 .4-.1.6-.2.2-.1.4-.3.5-.6.1-.3.3-.7.3-1.2.1-.5.1-1.1.1-1.9 0-.8 0-1.4-.1-1.9s-.2-.9-.3-1.2c-.1-.3-.3-.5-.5-.6-.2-.1-.4-.2-.6-.2-.2 0-.4.1-.6.2-.2.1-.4.3-.5.6-.1.3-.3.7-.3 1.2s-.1 1.1-.1 1.9c0 .8 0 1.4.1 1.9s.2.9.3 1.2c.1.3.3.5.5.6.2.1.4.2.6.2z"/>
        </g>
        <path stroke="#162843" stroke-linecap="round" stroke-linejoin="round" stroke-width="2" d="M266.5 32h-25.1c-1.3 0-2.4-1.1-2.4-2.4V4.4c0-1.3 1.1-2.4 2.4-2.4h25.1c1.3 0 2.4 1.1 2.4 2.4v25.1c.1 1.4-1 2.5-2.4 2.5z"/>
        <g fill="#122844" fill-rule="nonzero">
            <path d="M245.7 19h-1.4v-1.4h1.5l.3-2.3h-1.5v-1.4h1.6l.4-3.1h1.2l-.4 3.1h2.1l.4-3.1h1.2l-.4 3.1h1.4v1.4h-1.6l-.3 2.3h1.5V19H250l-.4 3.5h-1.3l.4-3.5h-2.1l-.4 3.5h-1.3l.8-3.5zm3.5-1.4l.3-2.3h-2.1l-.3 2.3h2.1zM254.2 20.8h2.6v-7.5h-2.1V12c1.1-.2 1.9-.5 2.6-.9h1.5v9.8h2.3v1.7h-6.9v-1.8z"/>
        </g>
        <path stroke="#162843" stroke-linecap="round" stroke-linejoin="round" stroke-width="2" d="M266.5 74.2h-25.1c-1.3 0-2.4-1.1-2.4-2.4V46.6c0-1.3 1.1-2.4 2.4-2.4h25.1c1.3 0 2.4 1.1 2.4 2.4v25.1c.1 1.4-1 2.5-2.4 2.5z"/>
        <g fill="#122844" fill-rule="nonzero">
            <path d="M245.7 61.1h-1.4v-1.4h1.5l.3-2.3h-1.5V56h1.6l.4-3.1h1.2l-.4 3.1h2.1l.4-3.1h1.2l-.4 3.1h1.4v1.4h-1.6l-.3 2.3h1.5v1.4H250l-.4 3.5h-1.3l.4-3.5h-2.1l-.4 3.5h-1.3l.8-3.5zm3.5-1.3l.3-2.3h-2.1l-.3 2.3h2.1zM253.6 63.5c3.2-3.1 5.2-5.1 5.2-6.8 0-1.2-.7-2-1.9-2-.9 0-1.6.6-2.2 1.3l-1.2-1.1c1-1.1 2.1-1.8 3.7-1.8 2.2 0 3.6 1.4 3.6 3.5 0 2-1.9 4.1-4.2 6.5.6-.1 1.4-.1 1.9-.1h2.8v1.8h-7.7v-1.3z"/>
        </g>
        <path stroke="#162843" stroke-linecap="round" stroke-linejoin="round" stroke-width="2" d="M266.5 116h-25.1c-1.3 0-2.4-1.1-2.4-2.4V88.4c0-1.3 1.1-2.4 2.4-2.4h25.1c1.3 0 2.4 1.1 2.4 2.4v25.1c.1 1.4-1 2.5-2.4 2.5z"/>
        <g fill="#122844" fill-rule="nonzero">
            <path d="M245.7 103h-1.4v-1.4h1.5l.3-2.3h-1.5v-1.4h1.6l.4-3.1h1.2l-.4 3.1h2.1l.4-3.1h1.2l-.4 3.1h1.4v1.4h-1.6l-.3 2.3h1.5v1.4H250l-.4 3.5h-1.3l.4-3.5h-2.1l-.4 3.5h-1.3l.8-3.5zm3.5-1.4l.3-2.3h-2.1l-.3 2.3h2.1zM253.3 105.1l1-1.3c.7.7 1.6 1.3 2.7 1.3 1.3 0 2.1-.6 2.1-1.7 0-1.2-.8-1.9-3.4-1.9V100c2.2 0 3-.8 3-1.8s-.6-1.5-1.7-1.5c-.9 0-1.6.4-2.3 1.1l-1.1-1.3c1-.9 2.1-1.4 3.5-1.4 2.2 0 3.7 1.1 3.7 3 0 1.3-.8 2.1-2 2.6v.1c1.4.4 2.4 1.3 2.4 2.9 0 2.1-1.8 3.3-4 3.3-1.8-.3-3.1-1-3.9-1.9z"/>
        </g>
        <g stroke-linecap="round" stroke-linejoin="round" stroke-width="2">
            <path stroke="#122844" d="M166 40l46.6-22.8"/>
            <path stroke="#162843" d="M204.4 14.2l9 2.3-2.2 8.9"/>
        </g>
        <g stroke-linecap="round" stroke-linejoin="round" stroke-width="2">
            <path stroke="#122844" d="M166 59.2h46.6"/>
            <path stroke="#162843" d="M206.3 52.6l6.6 6.6-6.6 6.5"/>
        </g>
        <g stroke-linecap="round" stroke-linejoin="round" stroke-width="2">
            <path stroke="#122844" d="M166 77l46.6 24.2"/>
            <path stroke="#162843" d="M210.7 92.8l2.8 8.8-8.8 2.9"/>
        </g>
        <path stroke="#162843" stroke-linecap="round" stroke-linejoin="round" stroke-width="2" d="M324.3 52.6l6.6 6.6-6.6 6.5M324.3 10.6l6.6 6.6-6.6 6.5M324.3 94.6l6.6 6.6-6.6 6.5M331 17h-40M331 59h-40M331 101h-40"/>
    </g>
</svg>
