<svg xmlns="http://www.w3.org/2000/svg" width="275" height="135" viewBox="0 0 275 135">
    <g fill="none" fill-rule="evenodd">
        <path stroke="#122844" stroke-width="2" d="M192.1 86.9H86.2c-9.3 0-16.8-7.5-16.8-16.8s7.5-16.8 16.8-16.8H192c9.3 0 16.8 7.5 16.8 16.8.1 9.3-7.4 16.8-16.7 16.8z"/>
        <g fill="#162843" fill-rule="nonzero">
            <path d="M90.2 75.9c-.6 0-1.2-.1-1.7-.4-.5-.3-.9-.6-1.3-1.1-.4-.5-.6-1.1-.8-1.9-.2-.7-.3-1.6-.3-2.6s.1-1.8.3-2.6c.2-.7.5-1.3.8-1.8.3-.5.8-.9 1.3-1.1.5-.2 1.1-.4 1.7-.4.6 0 1.2.1 1.7.4.5.2.9.6 1.3 1.1.4.5.6 1.1.8 1.8.2.7.3 1.6.3 2.6s-.1 1.8-.3 2.6c-.2.7-.5 1.4-.8 1.9-.4.5-.8.9-1.3 1.1-.5.3-1.1.4-1.7.4zm0-2c.2 0 .4-.1.6-.2.2-.1.4-.3.5-.6.1-.3.3-.7.3-1.2.1-.5.1-1.1.1-1.9 0-.8 0-1.4-.1-1.9s-.2-.9-.3-1.2c-.1-.3-.3-.5-.5-.6-.2-.1-.4-.2-.6-.2-.2 0-.4.1-.6.2-.2.1-.4.3-.5.6-.1.3-.3.7-.3 1.2s-.1 1.1-.1 1.9c0 .8 0 1.4.1 1.9s.2.9.3 1.2c.1.3.3.5.5.6.2.1.4.2.6.2zM96.2 75.7v-2.1h2.5V67h-2.1v-1.6c.6-.1 1.2-.3 1.6-.4.4-.2.9-.4 1.3-.6h1.9v9.3h2.1v2.1h-7.3v-.1zM112.8 75.9c-.6 0-1.2-.1-1.7-.4-.5-.3-.9-.6-1.3-1.1-.4-.5-.6-1.1-.8-1.9-.2-.7-.3-1.6-.3-2.6s.1-1.8.3-2.6c.2-.7.5-1.3.8-1.8.3-.5.8-.9 1.3-1.1.5-.2 1.1-.4 1.7-.4.6 0 1.2.1 1.7.4.5.2.9.6 1.3 1.1.4.5.6 1.1.8 1.8.2.7.3 1.6.3 2.6s-.1 1.8-.3 2.6c-.2.7-.5 1.4-.8 1.9-.4.5-.8.9-1.3 1.1-.5.3-1.1.4-1.7.4zm0-2c.2 0 .4-.1.6-.2.2-.1.4-.3.5-.6.1-.3.3-.7.3-1.2.1-.5.1-1.1.1-1.9 0-.8 0-1.4-.1-1.9s-.2-.9-.3-1.2c-.1-.3-.3-.5-.5-.6-.2-.1-.4-.2-.6-.2-.2 0-.4.1-.6.2-.2.1-.4.3-.5.6-.1.3-.3.7-.3 1.2s-.1 1.1-.1 1.9c0 .8 0 1.4.1 1.9s.2.9.3 1.2c.1.3.3.5.5.6.2.1.4.2.6.2zM122.3 75.9c-.6 0-1.2-.1-1.7-.4-.5-.3-.9-.6-1.3-1.1-.4-.5-.6-1.1-.8-1.9-.2-.7-.3-1.6-.3-2.6s.1-1.8.3-2.6c.2-.7.5-1.3.8-1.8.3-.5.8-.9 1.3-1.1.5-.2 1.1-.4 1.7-.4.6 0 1.2.1 1.7.4.5.2.9.6 1.3 1.1.4.5.6 1.1.8 1.8.2.7.3 1.6.3 2.6s-.1 1.8-.3 2.6c-.2.7-.5 1.4-.8 1.9-.4.5-.8.9-1.3 1.1-.5.3-1.1.4-1.7.4zm0-2c.2 0 .4-.1.6-.2.2-.1.4-.3.5-.6.1-.3.3-.7.3-1.2.1-.5.1-1.1.1-1.9 0-.8 0-1.4-.1-1.9s-.2-.9-.3-1.2c-.1-.3-.3-.5-.5-.6-.2-.1-.4-.2-.6-.2-.2 0-.4.1-.6.2-.2.1-.4.3-.5.6-.1.3-.3.7-.3 1.2s-.1 1.1-.1 1.9c0 .8 0 1.4.1 1.9s.2.9.3 1.2c.1.3.3.5.5.6.2.1.4.2.6.2zM135.4 75.9c-.6 0-1.2-.1-1.7-.4-.5-.3-.9-.6-1.3-1.1-.4-.5-.6-1.1-.8-1.9-.2-.7-.3-1.6-.3-2.6s.1-1.8.3-2.6c.2-.7.5-1.3.8-1.8.3-.5.8-.9 1.3-1.1.5-.2 1.1-.4 1.7-.4.6 0 1.2.1 1.7.4.5.2.9.6 1.3 1.1.4.5.6 1.1.8 1.8.2.7.3 1.6.3 2.6s-.1 1.8-.3 2.6c-.2.7-.5 1.4-.8 1.9-.4.5-.8.9-1.3 1.1-.5.3-1.1.4-1.7.4zm0-2c.2 0 .4-.1.6-.2.2-.1.4-.3.5-.6.1-.3.3-.7.3-1.2.1-.5.1-1.1.1-1.9 0-.8 0-1.4-.1-1.9s-.2-.9-.3-1.2c-.1-.3-.3-.5-.5-.6-.2-.1-.4-.2-.6-.2-.2 0-.4.1-.6.2-.2.1-.4.3-.5.6-.1.3-.3.7-.3 1.2s-.1 1.1-.1 1.9c0 .8 0 1.4.1 1.9s.2.9.3 1.2c.1.3.3.5.5.6.2.1.4.2.6.2zM144.9 75.9c-.6 0-1.2-.1-1.7-.4-.5-.3-.9-.6-1.3-1.1-.4-.5-.6-1.1-.8-1.9-.2-.7-.3-1.6-.3-2.6s.1-1.8.3-2.6c.2-.7.5-1.3.8-1.8.4-.5.8-.9 1.3-1.1.5-.2 1.1-.4 1.7-.4.6 0 1.2.1 1.7.4.5.2.9.6 1.3 1.1.4.5.6 1.1.8 1.8.2.7.3 1.6.3 2.6s-.1 1.8-.3 2.6c-.2.8-.5 1.4-.8 1.9-.4.5-.8.9-1.3 1.1-.5.3-1.1.4-1.7.4zm0-2c.2 0 .4-.1.6-.2.2-.1.4-.3.5-.6.1-.3.3-.7.3-1.2.1-.5.1-1.1.1-1.9 0-.8 0-1.4-.1-1.9s-.2-.9-.3-1.2c-.1-.3-.3-.5-.5-.6-.2-.1-.4-.2-.6-.2-.2 0-.4.1-.6.2-.2.1-.4.3-.5.6-.1.3-.3.7-.3 1.2s-.1 1.1-.1 1.9c0 .8 0 1.4.1 1.9s.2.9.3 1.2c.1.3.3.5.5.6.2.1.4.2.6.2zM158 75.9c-.6 0-1.2-.1-1.7-.4-.5-.3-.9-.6-1.3-1.1-.4-.5-.6-1.1-.8-1.9-.2-.8-.3-1.6-.3-2.6s.1-1.8.3-2.6c.2-.7.5-1.3.8-1.8.4-.5.8-.9 1.3-1.1.5-.2 1.1-.4 1.7-.4.6 0 1.2.1 1.7.4.5.2.9.6 1.3 1.1.4.5.6 1.1.8 1.8.2.7.3 1.6.3 2.6s-.1 1.8-.3 2.6c-.2.7-.5 1.4-.8 1.9-.4.5-.8.9-1.3 1.1-.5.2-1.1.4-1.7.4zm0-2c.2 0 .4-.1.6-.2.2-.1.4-.3.5-.6.1-.3.3-.7.3-1.2s.1-1.1.1-1.9c0-.8 0-1.4-.1-1.9s-.2-.9-.3-1.2c-.1-.3-.3-.5-.5-.6-.2-.1-.4-.2-.6-.2-.2 0-.4.1-.6.2-.2.1-.4.3-.5.6-.1.3-.3.7-.3 1.2s-.1 1.1-.1 1.9c0 .8 0 1.4.1 1.9s.2.9.3 1.2c.1.3.3.5.5.6.2.1.4.2.6.2zM167.5 75.9c-.6 0-1.2-.1-1.7-.4-.5-.3-.9-.6-1.3-1.1-.4-.5-.6-1.1-.8-1.9-.2-.8-.3-1.6-.3-2.6s.1-1.8.3-2.6c.2-.7.5-1.3.8-1.8.4-.5.8-.9 1.3-1.1.5-.2 1.1-.4 1.7-.4.6 0 1.2.1 1.7.4.5.2.9.6 1.3 1.1.4.5.6 1.1.8 1.8.2.7.3 1.6.3 2.6s-.1 1.8-.3 2.6c-.2.7-.5 1.4-.8 1.9-.4.5-.8.9-1.3 1.1-.5.2-1.1.4-1.7.4zm0-2c.2 0 .4-.1.6-.2.2-.1.4-.3.5-.6.1-.3.3-.7.3-1.2s.1-1.1.1-1.9c0-.8 0-1.4-.1-1.9s-.2-.9-.3-1.2c-.1-.3-.3-.5-.5-.6-.2-.1-.4-.2-.6-.2-.2 0-.4.1-.6.2-.2.1-.4.3-.5.6-.1.3-.3.7-.3 1.2s-.1 1.1-.1 1.9c0 .8 0 1.4.1 1.9s.2.9.3 1.2c.1.3.3.5.5.6.2.1.4.2.6.2zM180.6 75.9c-.6 0-1.2-.1-1.7-.4-.5-.3-.9-.6-1.3-1.1-.4-.5-.6-1.1-.8-1.9-.2-.7-.3-1.6-.3-2.6s.1-1.8.3-2.6c.2-.7.5-1.3.8-1.8.4-.5.8-.9 1.3-1.1.5-.2 1.1-.4 1.7-.4.6 0 1.2.1 1.7.4.5.2.9.6 1.3 1.1.4.5.6 1.1.8 1.8.2.7.3 1.6.3 2.6s-.1 1.8-.3 2.6c-.2.8-.5 1.4-.8 1.9-.4.5-.8.9-1.3 1.1-.5.3-1.1.4-1.7.4zm0-2c.2 0 .4-.1.6-.2.2-.1.4-.3.5-.6.1-.3.3-.7.3-1.2.1-.5.1-1.1.1-1.9 0-.8 0-1.4-.1-1.9s-.2-.9-.3-1.2c-.1-.3-.3-.5-.5-.6-.2-.1-.4-.2-.6-.2-.2 0-.4.1-.6.2-.2.1-.4.3-.5.6-.1.3-.3.7-.3 1.2s-.2 1.1-.2 1.9c0 .8 0 1.4.1 1.9s.2.9.3 1.2c.1.3.3.5.5.6.3.1.5.2.7.2zM190.1 75.9c-.6 0-1.2-.1-1.7-.4-.5-.3-.9-.6-1.3-1.1-.4-.5-.6-1.1-.8-1.9-.2-.7-.3-1.6-.3-2.6s.1-1.8.3-2.6c.2-.7.5-1.3.8-1.8.4-.5.8-.9 1.3-1.1.5-.2 1.1-.4 1.7-.4.6 0 1.2.1 1.7.4.5.2.9.6 1.3 1.1.4.5.6 1.1.8 1.8.2.7.3 1.6.3 2.6s-.1 1.8-.3 2.6c-.2.8-.5 1.4-.8 1.9-.4.5-.8.9-1.3 1.1-.5.3-1.1.4-1.7.4zm0-2c.2 0 .4-.1.6-.2.2-.1.4-.3.5-.6.1-.3.3-.7.3-1.2.1-.5.1-1.1.1-1.9 0-.8 0-1.4-.1-1.9s-.2-.9-.3-1.2c-.1-.3-.3-.5-.5-.6-.2-.1-.4-.2-.6-.2-.2 0-.4.1-.6.2-.2.1-.4.3-.5.6-.1.3-.3.7-.3 1.2s-.1 1.1-.1 1.9c0 .8 0 1.4.1 1.9s.2.9.3 1.2c.1.3.3.5.5.6.2.1.4.2.6.2z"/>
        </g>
        <g stroke-linecap="round" stroke-linejoin="round" stroke-width="2">
            <path stroke="#122844" d="M43.2 66.1h19.6"/>
            <path stroke="#162843" d="M58.3 60.3l5.9 5.9-5.9 5.9"/>
        </g>
        <g stroke-linecap="round" stroke-linejoin="round" stroke-width="2">
            <path stroke="#122844" d="M140.7 36v11.8"/>
            <path stroke="#162843" d="M146.5 43.3l-5.9 5.9-5.9-5.9"/>
        </g>
        <g stroke-linecap="round" stroke-linejoin="round" stroke-width="2">
            <path stroke="#122844" d="M69.2 37.5l10.6 10.6"/>
            <path stroke="#162843" d="M80.7 40.8v8.4h-8.3"/>
        </g>
        <g stroke-linecap="round" stroke-linejoin="round" stroke-width="2">
            <path stroke="#122844" d="M217.2 37.6l-10.6 10.5"/>
            <path stroke="#162843" d="M205.7 40.8v8.4h8.3"/>
        </g>
        <g stroke-linecap="round" stroke-linejoin="round" stroke-width="2">
            <path stroke="#122844" d="M140.5 104.2V92.4"/>
            <path stroke="#162843" d="M134.7 96.9l5.9-5.9 5.9 5.9"/>
        </g>
        <g stroke-linecap="round" stroke-linejoin="round" stroke-width="2">
            <path stroke="#122844" d="M217.2 102.7L206.5 92"/>
            <path stroke="#162843" d="M205.6 99.3V91h8.4"/>
        </g>
        <g stroke-linecap="round" stroke-linejoin="round" stroke-width="2">
            <path stroke="#122844" d="M69.2 102.6L79.8 92"/>
            <path stroke="#162843" d="M80.7 99.3V91h-8.4"/>
        </g>
        <g stroke-linecap="round" stroke-linejoin="round" stroke-width="2">
            <path stroke="#122844" d="M235.2 66.3h-18.7"/>
            <path stroke="#162843" d="M221.1 72.1l-5.9-5.9 5.9-5.9"/>
        </g>
        <path stroke="#162843" stroke-linecap="round" stroke-linejoin="round" stroke-width="2" d="M2.2 62h11.3"/>
        <path fill="#162843" fill-rule="nonzero" d="M12.7 46c.6 0 1 .4 1 1v19c0 .6-.4 1-1 1H3c-.6 0-1-.4-1-1V47c0-.6.4-1 1-1h9.7zm0-2H3c-1.7 0-3 1.3-3 3v19c0 1.7 1.3 3 3 3h9.7c1.7 0 3-1.3 3-3V47c0-1.7-1.4-3-3-3z"/>
        <path stroke="#162843" stroke-linecap="round" stroke-linejoin="round" stroke-width="2" d="M7 65h1.7"/>
        <g stroke="#162843" stroke-linecap="round" stroke-linejoin="round" stroke-width="2" transform="translate(16 45)">
            <circle cx="10.8" cy="6.7" r="5.9"/>
            <path d="M21 26c0-5.5-4.7-10-10.2-10C5.3 16 .6 20.5.6 26v4.8H21V26z"/>
        </g>
        <path stroke="#162843" stroke-linecap="round" stroke-linejoin="round" stroke-width="2" d="M116.2 18h11.3"/>
        <path fill="#162843" fill-rule="nonzero" d="M126.7 2c.6 0 1 .4 1 1v19c0 .6-.4 1-1 1H117c-.6 0-1-.4-1-1V3c0-.6.4-1 1-1h9.7zm0-2H117c-1.7 0-3 1.3-3 3v19c0 1.7 1.3 3 3 3h9.7c1.7 0 3-1.3 3-3V3c0-1.7-1.3-3-3-3z"/>
        <path stroke="#162843" stroke-linecap="round" stroke-linejoin="round" stroke-width="2" d="M121 21h1.7"/>
        <g stroke="#162843" stroke-linecap="round" stroke-linejoin="round" stroke-width="2">
            <g transform="translate(130 1)">
                <circle cx="10.8" cy="6.7" r="5.9"/>
                <path d="M21.1 26c0-5.5-4.7-10-10.2-10C5.4 16 .7 20.5.7 26v4.8h20.5V26h-.1z"/>
            </g>
        </g>
        <g>
            <path stroke="#162843" stroke-linecap="round" stroke-linejoin="round" stroke-width="2" d="M194.2 18h11.3"/>
            <path fill="#162843" fill-rule="nonzero" d="M204.7 2c.6 0 1 .4 1 1v19c0 .6-.4 1-1 1H195c-.6 0-1-.4-1-1V3c0-.6.4-1 1-1h9.7zm0-2H195c-1.7 0-3 1.3-3 3v19c0 1.7 1.3 3 3 3h9.7c1.7 0 3-1.3 3-3V3c0-1.7-1.4-3-3-3z"/>
            <path stroke="#162843" stroke-linecap="round" stroke-linejoin="round" stroke-width="2" d="M199 21h1.7"/>
            <g stroke="#162843" stroke-linecap="round" stroke-linejoin="round" stroke-width="2">
                <g transform="translate(208 1)">
                    <circle cx="10.8" cy="6.7" r="5.9"/>
                    <path d="M21 26c0-5.5-4.7-10-10.2-10C5.3 16 .6 20.5.6 26v4.8H21V26z"/>
                </g>
            </g>
        </g>
        <g>
            <path stroke="#162843" stroke-linecap="round" stroke-linejoin="round" stroke-width="2" d="M33.2 120h11.3"/>
            <path fill="#162843" fill-rule="nonzero" d="M43.7 104c.6 0 1 .4 1 1v19c0 .6-.4 1-1 1H34c-.6 0-1-.4-1-1v-19c0-.6.4-1 1-1h9.7zm0-2H34c-1.7 0-3 1.3-3 3v19c0 1.7 1.3 3 3 3h9.7c1.7 0 3-1.3 3-3v-19c0-1.7-1.4-3-3-3z"/>
            <path stroke="#162843" stroke-linecap="round" stroke-linejoin="round" stroke-width="2" d="M38 123h1.7"/>
            <g stroke="#162843" stroke-linecap="round" stroke-linejoin="round" stroke-width="2">
                <g transform="translate(47 103)">
                    <circle cx="10.8" cy="6.7" r="5.9"/>
                    <path d="M21 26c0-5.5-4.7-10-10.2-10C5.3 16 .6 20.5.6 26v4.8H21V26z"/>
                </g>
            </g>
        </g>
        <g>
            <g stroke="#162843" stroke-linecap="round" stroke-linejoin="round" stroke-width="2" transform="translate(57 1)">
                <circle cx="10.8" cy="6.7" r="5.9"/>
                <path d="M21 26c0-5.5-4.7-10-10.2-10C5.3 16 .6 20.5.6 26v4.8H21V26z"/>
            </g>
            <g fill-rule="nonzero">
                <path fill="#FFF" d="M61 25.9c-.3 0-.5-.1-.8-.2-8.6-3.5-12.7-13.4-9.2-22 0 0 0-.1.1-.1.3-.6.9-1 1.6-1 .3 0 .5.1.8.2l3 1.2s.1 0 .1.1c.9.4 1.3 1.5.9 2.4-.3.9-.6 1.8-.7 2.8 0 .8-.5 1.4-1.2 1.7l-2 .8c.4 2.4 1.3 4.6 2.7 6.4l2.1-.9h.1c.2 0 .3-.1.5-.1.4 0 .9.1 1.2.4.9.7 1.8 1.3 2.7 1.7 0 0 .1 0 .2.1.4.2.8.6.9 1 .1.4.1.9-.1 1.4l-1.3 3.1c-.2.6-.9 1-1.6 1z"/>
                <path fill="#162843" d="M52.8 3.5c.1 0 .3 0 .4.1l3 1.2h.1c.4.2.6.7.4 1.2-.4 1-.7 2.1-.8 3.2 0 .4-.2.7-.5.8l-2.7 1.1c.3 3 1.5 5.9 3.4 8.1l2.7-1.1h.3c.2 0 .5.1.7.2.9.8 1.9 1.4 2.9 1.8h.1c.4.2.6.7.4 1.2l-1.2 3v.1c-.2.3-.5.5-.8.5-.1 0-.3 0-.4-.1-8.1-3.3-12-12.6-8.7-20.8v-.1c0-.2.3-.4.7-.4zm0-1.9c-1 0-2 .6-2.5 1.5 0 .1-.1.2-.1.2-1.8 4.4-1.8 9.2.1 13.6 1.8 4.4 5.3 7.8 9.6 9.6.4.2.7.2 1.1.2 1 0 2-.6 2.5-1.5 0-.1.1-.2.1-.2l1.2-3c.3-.6.3-1.4.1-2-.2-.7-.7-1.2-1.4-1.6-.1 0-.2-.1-.2-.1-.9-.4-1.7-.9-2.4-1.5l-.1-.1c-.5-.4-1.1-.6-1.7-.6-.2 0-.5 0-.7.1-.1 0-.2.1-.3.1l-1.4.6c-.9-1.4-1.6-3-1.9-4.7l1.3-.5c1-.4 1.7-1.4 1.7-2.4.1-.9.3-1.7.7-2.6.3-.6.3-1.3.1-2-.2-.7-.7-1.2-1.4-1.6-.1 0-.2-.1-.2-.1l-3-1.2c-.5-.1-.8-.2-1.2-.2z"/>
            </g>
        </g>
        <g>
            <g stroke="#162843" stroke-linecap="round" stroke-linejoin="round" stroke-width="2" transform="translate(253 49)">
                <circle cx="10.8" cy="6.7" r="5.9"/>
                <path d="M21 26c0-5.5-4.7-10-10.2-10C5.3 16 .6 20.5.6 26v4.8H21V26z"/>
            </g>
            <g fill-rule="nonzero">
                <path fill="#FFF" d="M257 73.9c-.3 0-.5-.1-.8-.2-4.1-1.7-7.4-4.9-9.1-9.1-1.7-4.2-1.8-8.7 0-12.9 0 0 0-.1.1-.1.3-.6.9-1 1.6-1 .3 0 .5.1.8.2l3 1.2s.1 0 .1.1c.4.2.8.6.9 1 .2.5.1.9-.1 1.4-.3.9-.6 1.8-.7 2.8 0 .8-.5 1.4-1.2 1.7l-2 .8c.4 2.4 1.3 4.6 2.7 6.4l2.1-.9h.1c.2 0 .3-.1.5-.1.4 0 .8.1 1.2.4.9.7 1.8 1.3 2.7 1.7 0 0 .1 0 .2.1.4.2.8.6.9 1 .2.5.1.9-.1 1.4 0 0-1.2 3.1-1.3 3.1-.2.6-.9 1-1.6 1z"/>
                <path fill="#162843" d="M248.8 51.5c.1 0 .3 0 .4.1l3 1.2h.1c.4.2.6.7.4 1.2-.4 1-.7 2.1-.8 3.2 0 .4-.2.7-.5.8l-2.7 1.1c.3 3 1.5 5.9 3.4 8.1l2.7-1.1h.3c.2 0 .5.1.7.2.9.8 1.9 1.4 2.9 1.8h.1c.4.2.6.7.4 1.2l-1.2 3v.1c-.2.3-.5.5-.8.5-.1 0-.3 0-.4-.1-8.1-3.3-12-12.6-8.7-20.8v-.1c0-.2.3-.4.7-.4zm0-1.9c-1 0-2 .6-2.5 1.5 0 .1-.1.2-.1.2-3.7 9.1.7 19.4 9.7 23.1.4.2.7.2 1.1.2 1 0 2-.6 2.5-1.5 0-.1.1-.2.1-.2l1.2-3c.6-1.3 0-2.9-1.3-3.6-.1 0-.2-.1-.2-.1-.9-.4-1.7-.9-2.4-1.5l-.1-.1c-.5-.4-1.1-.6-1.7-.6-.2 0-.5 0-.7.1-.1 0-.2.1-.3.1l-1.4.6c-.9-1.4-1.6-3-1.9-4.7l1.3-.5c1-.4 1.7-1.4 1.7-2.4.1-.9.3-1.7.7-2.6.6-1.3 0-2.9-1.3-3.6-.1 0-.2-.1-.2-.1l-3-1.2c-.5 0-.8-.1-1.2-.1z"/>
            </g>
        </g>
        <g>
            <g stroke="#162843" stroke-linecap="round" stroke-linejoin="round" stroke-width="2" transform="translate(224 103)">
                <circle cx="10.8" cy="6.7" r="5.9"/>
                <path d="M21 26c0-5.5-4.7-10-10.2-10C5.3 16 .6 20.5.6 26v4.8H21V26z"/>
            </g>
            <g fill-rule="nonzero">
                <path fill="#FFF" d="M228 127.9c-.3 0-.5-.1-.8-.2-4.1-1.7-7.4-4.9-9.1-9.1-1.7-4.2-1.8-8.7 0-12.9 0 0 0-.1.1-.1.3-.6.9-1 1.6-1 .3 0 .5.1.8.2l3 1.2s.1 0 .1.1c.4.2.8.6.9 1 .2.5.1.9-.1 1.4-.3.9-.6 1.8-.7 2.8 0 .8-.5 1.4-1.2 1.7l-2 .8c.4 2.4 1.3 4.6 2.7 6.4l2.1-.9h.1c.2 0 .3-.1.5-.1.4 0 .8.1 1.2.4.9.7 1.8 1.3 2.7 1.7 0 0 .1 0 .2.1.4.2.8.6.9 1 .2.5.1.9-.1 1.4 0 0-1.2 3.1-1.3 3.1-.2.6-.9 1-1.6 1z"/>
                <path fill="#162843" d="M219.8 105.5c.1 0 .3 0 .4.1l3 1.2h.1c.4.2.6.7.4 1.2-.4 1-.7 2.1-.8 3.2 0 .4-.2.7-.5.8l-2.7 1.1c.3 3 1.5 5.9 3.4 8.1l2.7-1.1h.3c.2 0 .5.1.7.2.9.8 1.9 1.4 2.9 1.8h.1c.4.2.6.7.4 1.2l-1.2 3v.1c-.2.3-.5.5-.8.5-.1 0-.3 0-.4-.1-8.1-3.3-12-12.6-8.7-20.8v-.1c0-.2.3-.4.7-.4zm0-1.9c-1 0-2 .6-2.5 1.5 0 .1-.1.2-.1.2-3.7 9.1.7 19.4 9.7 23.1.4.2.7.2 1.1.2 1 0 2-.6 2.5-1.5 0-.1.1-.2.1-.2l1.2-3c.6-1.3 0-2.9-1.3-3.6-.1 0-.2-.1-.2-.1-.9-.4-1.7-.9-2.4-1.5l-.1-.1c-.5-.4-1.1-.6-1.7-.6-.2 0-.5 0-.7.1-.1 0-.2.1-.3.1l-1.4.6c-.9-1.4-1.6-3-1.9-4.7l1.3-.5c1-.4 1.7-1.4 1.7-2.4.1-.9.3-1.7.7-2.6.6-1.3 0-2.9-1.3-3.6-.1 0-.2-.1-.2-.1l-3-1.2c-.5 0-.8-.1-1.2-.1z"/>
            </g>
        </g>
        <g>
            <g stroke="#162843" stroke-linecap="round" stroke-linejoin="round" stroke-width="2" transform="translate(133 103)">
                <circle cx="11" cy="6.7" r="5.9"/>
                <path d="M21.2 26c0-5.5-4.7-10-10.2-10C5.5 16 .8 20.5.8 26v4.8h20.5V26h-.1z"/>
            </g>
            <g fill-rule="nonzero">
                <path fill="#FFF" d="M137.2 127.9c-.3 0-.5-.1-.8-.2-8.6-3.5-12.7-13.4-9.2-22 0 0 0-.1.1-.1.3-.6.9-1 1.6-1 .3 0 .5.1.8.2l3 1.2s.1 0 .1.1c.9.4 1.3 1.5.9 2.4-.3.9-.6 1.8-.7 2.8 0 .8-.5 1.4-1.2 1.7l-2 .8c.4 2.4 1.3 4.6 2.7 6.4l2.1-.9h.1c.2 0 .3-.1.5-.1.4 0 .9.1 1.2.4.9.7 1.8 1.3 2.7 1.7 0 0 .1 0 .2.1.9.4 1.3 1.5.8 2.4l-1.3 3.1c-.2.6-.9 1-1.6 1z"/>
                <path fill="#162843" d="M129 105.5c.1 0 .3 0 .4.1l3 1.2h.1c.4.2.6.7.4 1.2-.4 1-.7 2.1-.8 3.2 0 .4-.2.7-.5.8l-2.7 1.1c.3 3 1.5 5.9 3.4 8.1l2.7-1.1h.3c.2 0 .5.1.7.2.9.8 1.9 1.4 2.9 1.8h.1c.4.2.6.7.4 1.2l-1.2 3v.1c-.2.3-.5.5-.8.5-.1 0-.3 0-.4-.1-8.1-3.3-12-12.6-8.7-20.8v-.1c0-.2.3-.4.7-.4zm0-1.9c-1 0-2 .6-2.5 1.5 0 .1-.1.2-.1.2-3.7 9.1.7 19.4 9.7 23.1.4.2.7.2 1.1.2 1 0 2-.6 2.5-1.5 0-.1.1-.2.1-.2l1.2-3c.6-1.3 0-2.9-1.3-3.6-.1 0-.2-.1-.2-.1-.9-.4-1.7-.9-2.4-1.5l-.1-.1c-.5-.4-1.1-.6-1.7-.6-.2 0-.5 0-.7.1-.1 0-.2.1-.3.1l-1.4.6c-.9-1.4-1.6-3-1.9-4.7l1.3-.5c1-.4 1.7-1.4 1.7-2.4.1-.9.3-1.7.7-2.6.6-1.3 0-2.9-1.3-3.6-.1 0-.2-.1-.2-.1l-3-1.2c-.5 0-.9-.1-1.2-.1z"/>
            </g>
        </g>
    </g>
</svg>
