<svg xmlns="http://www.w3.org/2000/svg" width="374" height="58" viewBox="0 0 374 58">
    <g fill="none" fill-rule="evenodd">
        <g stroke="#162843" stroke-linecap="round" stroke-linejoin="round" stroke-width="2" transform="translate(228 1)">
            <circle cx="19.5" cy="11.1" r="11.1"/>
            <path d="M38.6 47.1c0-10.3-8.8-18.6-19.1-18.6S.4 36.9.4 47.1V56h38.2v-8.9z"/>
        </g>
        <g stroke="#162843" stroke-linecap="round" stroke-linejoin="round" stroke-width="2" opacity=".5" transform="translate(281 1)">
            <circle cx="19.5" cy="11.1" r="11.1"/>
            <path d="M38.6 47.1c0-10.3-8.8-18.6-19.1-18.6S.4 36.9.4 47.1V56h38.2v-8.9z"/>
        </g>
        <g stroke="#162843" stroke-linecap="round" stroke-linejoin="round" stroke-width="2" opacity=".5" transform="translate(334 1)">
            <circle cx="19.5" cy="11.1" r="11.1"/>
            <path d="M38.6 47.1c0-10.3-8.8-18.6-19.1-18.6S.4 36.9.4 47.1V56h38.2v-8.9z"/>
        </g>
        <path stroke="#122844" stroke-width="2" d="M124 46.9H18.2c-9.3 0-16.8-7.5-16.8-16.8s7.5-16.8 16.8-16.8H124c9.3 0 16.8 7.5 16.8 16.8.1 9.3-7.5 16.8-16.8 16.8z"/>
        <g fill="#122844" fill-rule="nonzero">
            <path d="M22.2 35.9c-.6 0-1.2-.1-1.7-.4-.5-.3-.9-.6-1.3-1.1-.4-.5-.6-1.1-.8-1.9-.2-.7-.3-1.6-.3-2.6s.1-1.8.3-2.6c.2-.7.5-1.3.8-1.8.3-.5.8-.9 1.3-1.1.5-.2 1.1-.4 1.7-.4.6 0 1.2.1 1.7.4.5.2.9.6 1.3 1.1.4.5.6 1.1.8 1.8.2.7.3 1.6.3 2.6s-.1 1.8-.3 2.6c-.2.7-.5 1.4-.8 1.9-.4.5-.8.9-1.3 1.1-.6.3-1.1.4-1.7.4zm0-2c.2 0 .4-.1.6-.2.2-.1.4-.3.5-.6.1-.3.3-.7.3-1.2.1-.5.1-1.1.1-1.9 0-.8 0-1.4-.1-1.9s-.2-.9-.3-1.2c-.1-.3-.3-.5-.5-.6-.2-.1-.4-.2-.6-.2-.2 0-.4.1-.6.2-.2.1-.4.3-.5.6-.1.3-.3.7-.3 1.2s-.1 1.1-.1 1.9c0 .8 0 1.4.1 1.9s.2.9.3 1.2c.1.3.3.5.5.6.1.1.3.2.6.2zM28.2 35.7v-2.1h2.5V27h-2.1v-1.6c.6-.1 1.2-.3 1.6-.4.4-.2.9-.4 1.3-.6h1.9v9.3h2.1v2.1h-7.3v-.1zM44.8 35.9c-.6 0-1.2-.1-1.7-.4-.5-.3-.9-.6-1.3-1.1-.4-.5-.6-1.1-.8-1.9-.2-.7-.3-1.6-.3-2.6s.1-1.8.3-2.6c.2-.7.5-1.3.8-1.8.3-.5.8-.9 1.3-1.1.5-.2 1.1-.4 1.7-.4.6 0 1.2.1 1.7.4.5.2.9.6 1.3 1.1.4.5.6 1.1.8 1.8.2.7.3 1.6.3 2.6s-.1 1.8-.3 2.6c-.2.7-.5 1.4-.8 1.9-.4.5-.8.9-1.3 1.1-.6.3-1.1.4-1.7.4zm0-2c.2 0 .4-.1.6-.2.2-.1.4-.3.5-.6.1-.3.3-.7.3-1.2.1-.5.1-1.1.1-1.9 0-.8 0-1.4-.1-1.9s-.2-.9-.3-1.2c-.1-.3-.3-.5-.5-.6-.2-.1-.4-.2-.6-.2-.2 0-.4.1-.6.2-.2.1-.4.3-.5.6-.1.3-.3.7-.3 1.2s-.1 1.1-.1 1.9c0 .8 0 1.4.1 1.9s.2.9.3 1.2c.1.3.3.5.5.6.1.1.4.2.6.2zM54.3 35.9c-.6 0-1.2-.1-1.7-.4-.5-.3-.9-.6-1.3-1.1-.4-.5-.6-1.1-.8-1.9-.2-.7-.3-1.6-.3-2.6s.1-1.8.3-2.6c.2-.7.5-1.3.8-1.8.3-.5.8-.9 1.3-1.1.5-.2 1.1-.4 1.7-.4.6 0 1.2.1 1.7.4.5.2.9.6 1.3 1.1.4.5.6 1.1.8 1.8.2.7.3 1.6.3 2.6s-.1 1.8-.3 2.6c-.2.7-.5 1.4-.8 1.9-.4.5-.8.9-1.3 1.1-.6.3-1.1.4-1.7.4zm0-2c.2 0 .4-.1.6-.2.2-.1.4-.3.5-.6.1-.3.3-.7.3-1.2.1-.5.1-1.1.1-1.9 0-.8 0-1.4-.1-1.9s-.2-.9-.3-1.2c-.1-.3-.3-.5-.5-.6-.2-.1-.4-.2-.6-.2-.2 0-.4.1-.6.2-.2.1-.4.3-.5.6-.1.3-.3.7-.3 1.2s-.1 1.1-.1 1.9c0 .8 0 1.4.1 1.9s.2.9.3 1.2c.1.3.3.5.5.6.2.1.4.2.6.2zM67.4 35.9c-.6 0-1.2-.1-1.7-.4-.5-.3-.9-.6-1.3-1.1-.4-.5-.6-1.1-.8-1.9-.2-.7-.3-1.6-.3-2.6s.1-1.8.3-2.6c.2-.7.5-1.3.8-1.8.3-.5.8-.9 1.3-1.1.5-.2 1.1-.4 1.7-.4.6 0 1.2.1 1.7.4.5.2.9.6 1.3 1.1.4.5.6 1.1.8 1.8.2.7.3 1.6.3 2.6s-.1 1.8-.3 2.6c-.2.7-.5 1.4-.8 1.9-.4.5-.8.9-1.3 1.1-.6.3-1.1.4-1.7.4zm0-2c.2 0 .4-.1.6-.2.2-.1.4-.3.5-.6.1-.3.3-.7.3-1.2.1-.5.1-1.1.1-1.9 0-.8 0-1.4-.1-1.9s-.2-.9-.3-1.2c-.1-.3-.3-.5-.5-.6-.2-.1-.4-.2-.6-.2-.2 0-.4.1-.6.2-.2.1-.4.3-.5.6-.1.3-.3.7-.3 1.2s-.1 1.1-.1 1.9c0 .8 0 1.4.1 1.9s.2.9.3 1.2c.1.3.3.5.5.6.2.1.4.2.6.2zM76.9 35.9c-.6 0-1.2-.1-1.7-.4-.5-.3-.9-.6-1.3-1.1-.4-.5-.6-1.1-.8-1.9-.2-.7-.3-1.6-.3-2.6s.1-1.8.3-2.6c.2-.7.5-1.3.8-1.8.3-.5.8-.9 1.3-1.1.5-.2 1.1-.4 1.7-.4.6 0 1.2.1 1.7.4.5.2.9.6 1.3 1.1.4.5.6 1.1.8 1.8.2.7.3 1.6.3 2.6s-.1 1.8-.3 2.6c-.2.7-.5 1.4-.8 1.9-.4.5-.8.9-1.3 1.1-.6.3-1.1.4-1.7.4zm0-2c.2 0 .4-.1.6-.2.2-.1.4-.3.5-.6.1-.3.3-.7.3-1.2.1-.5.1-1.1.1-1.9 0-.8 0-1.4-.1-1.9s-.2-.9-.3-1.2c-.1-.3-.3-.5-.5-.6-.2-.1-.4-.2-.6-.2-.2 0-.4.1-.6.2-.2.1-.4.3-.5.6-.1.3-.3.7-.3 1.2s-.1 1.1-.1 1.9c0 .8 0 1.4.1 1.9s.2.9.3 1.2c.1.3.3.5.5.6.2.1.4.2.6.2zM90 35.9c-.6 0-1.2-.1-1.7-.4-.5-.3-.9-.6-1.3-1.1-.4-.5-.6-1.1-.8-1.9-.2-.7-.3-1.6-.3-2.6s.1-1.8.3-2.6c.2-.7.5-1.3.8-1.8.3-.5.8-.9 1.3-1.1.5-.2 1.1-.4 1.7-.4.6 0 1.2.1 1.7.4.5.2.9.6 1.3 1.1.4.5.6 1.1.8 1.8.2.7.3 1.6.3 2.6s-.1 1.8-.3 2.6c-.2.7-.5 1.4-.8 1.9-.4.5-.8.9-1.3 1.1-.5.3-1.1.4-1.7.4zm0-2c.2 0 .4-.1.6-.2.2-.1.4-.3.5-.6.1-.3.3-.7.3-1.2.1-.5.1-1.1.1-1.9 0-.8 0-1.4-.1-1.9s-.2-.9-.3-1.2c-.1-.3-.3-.5-.5-.6-.2-.1-.4-.2-.6-.2-.2 0-.4.1-.6.2-.2.1-.4.3-.5.6-.1.3-.3.7-.3 1.2s-.1 1.1-.1 1.9c0 .8 0 1.4.1 1.9s.2.9.3 1.2c.1.3.3.5.5.6.2.1.4.2.6.2zM99.5 35.9c-.6 0-1.2-.1-1.7-.4-.5-.3-.9-.6-1.3-1.1-.4-.5-.6-1.1-.8-1.9-.2-.7-.3-1.6-.3-2.6s.1-1.8.3-2.6c.2-.7.5-1.3.8-1.8.3-.5.8-.9 1.3-1.1.5-.2 1.1-.4 1.7-.4.6 0 1.2.1 1.7.4.5.2.9.6 1.3 1.1.4.5.6 1.1.8 1.8.2.7.3 1.6.3 2.6s-.1 1.8-.3 2.6c-.2.7-.5 1.4-.8 1.9-.4.5-.8.9-1.3 1.1-.5.3-1.1.4-1.7.4zm0-2c.2 0 .4-.1.6-.2.2-.1.4-.3.5-.6.1-.3.3-.7.3-1.2.1-.5.1-1.1.1-1.9 0-.8 0-1.4-.1-1.9s-.2-.9-.3-1.2c-.1-.3-.3-.5-.5-.6-.2-.1-.4-.2-.6-.2-.2 0-.4.1-.6.2-.2.1-.4.3-.5.6-.1.3-.3.7-.3 1.2S98 29.2 98 30c0 .8 0 1.4.1 1.9s.2.9.3 1.2c.1.3.3.5.5.6.2.1.4.2.6.2zM112.6 35.9c-.6 0-1.2-.1-1.7-.4-.5-.3-.9-.6-1.3-1.1-.4-.5-.6-1.1-.8-1.9-.2-.7-.3-1.6-.3-2.6s.1-1.8.3-2.6c.2-.7.5-1.3.8-1.8.3-.5.8-.9 1.3-1.1.5-.2 1.1-.4 1.7-.4.6 0 1.2.1 1.7.4.5.2.9.6 1.3 1.1.4.5.6 1.1.8 1.8.2.7.3 1.6.3 2.6s-.1 1.8-.3 2.6c-.2.7-.5 1.4-.8 1.9-.4.5-.8.9-1.3 1.1-.5.3-1.1.4-1.7.4zm0-2c.2 0 .4-.1.6-.2.2-.1.4-.3.5-.6.1-.3.3-.7.3-1.2.1-.5.1-1.1.1-1.9 0-.8 0-1.4-.1-1.9s-.2-.9-.3-1.2c-.1-.3-.3-.5-.5-.6-.2-.1-.4-.2-.6-.2-.2 0-.4.1-.6.2-.2.1-.4.3-.5.6-.1.3-.3.7-.3 1.2s-.2 1.1-.2 1.9c0 .8 0 1.4.1 1.9s.2.9.3 1.2c.1.3.3.5.5.6.3.1.5.2.7.2zM122.1 35.9c-.6 0-1.2-.1-1.7-.4-.5-.3-.9-.6-1.3-1.1-.4-.5-.6-1.1-.8-1.9-.2-.7-.3-1.6-.3-2.6s.1-1.8.3-2.6c.2-.7.5-1.3.8-1.8.3-.5.8-.9 1.3-1.1.5-.2 1.1-.4 1.7-.4.6 0 1.2.1 1.7.4.5.2.9.6 1.3 1.1.4.5.6 1.1.8 1.8.2.7.3 1.6.3 2.6s-.1 1.8-.3 2.6c-.2.7-.5 1.4-.8 1.9-.4.5-.8.9-1.3 1.1-.5.3-1.1.4-1.7.4zm0-2c.2 0 .4-.1.6-.2.2-.1.4-.3.5-.6.1-.3.3-.7.3-1.2.1-.5.1-1.1.1-1.9 0-.8 0-1.4-.1-1.9s-.2-.9-.3-1.2c-.1-.3-.3-.5-.5-.6-.2-.1-.4-.2-.6-.2-.2 0-.4.1-.6.2-.2.1-.4.3-.5.6-.1.3-.3.7-.3 1.2s-.1 1.1-.1 1.9c0 .8 0 1.4.1 1.9s.2.9.3 1.2c.1.3.3.5.5.6.2.1.4.2.6.2z"/>
        </g>
        <g stroke-linecap="round" stroke-linejoin="round" stroke-width="2">
            <path stroke="#122844" d="M192.2 28.3h24.6"/>
            <path stroke="#162843" d="M210.6 21.8l6.5 6.5-6.5 6.6"/>
        </g>
        <g stroke="#162843" stroke-linecap="round" stroke-linejoin="round" stroke-width="2">
            <path d="M171.6 30.6V18.3M171.6 30.6h7.8M160.1 22.2v-8.4l-8.4.1"/>
            <path d="M171.2 10h.7c11.2 0 20.3 9.1 20.3 20.3 0 11.2-9.1 20.3-20.3 20.3-11.2 0-20.3-9.1-20.3-20.3 0-6.2 2.8-12.1 7.7-15.9 0 0 .4-.4.6-.5"/>
        </g>
        <path stroke="#162843" stroke-linecap="round" stroke-linejoin="round" stroke-width="2" d="M270.6 21.8l6.5 6.5-6.5 6.6M323.6 21.8l6.5 6.5-6.5 6.6" opacity=".5"/>
    </g>
</svg>
