<?xml version="1.0" encoding="utf-8"?>
<!-- Generator: Adobe Illustrator 22.0.1, SVG Export Plug-In . SVG Version: 6.00 Build 0)  -->
<svg version="1.1" id="Calque_1" xmlns="http://www.w3.org/2000/svg" xmlns:xlink="http://www.w3.org/1999/xlink" x="0px" y="0px"
	 viewBox="0 0 180 180" style="enable-background:new 0 0 180 180;" xml:space="preserve">
<style type="text/css">
	.st0{fill:none;}
	.st1{fill:none;stroke:#488AF2;stroke-width:4;stroke-miterlimit:10;}
	.st2{fill:none;stroke:#88AFFC;stroke-width:4;stroke-miterlimit:10;}
	.st3{opacity:0.31;fill:#97BEFC;enable-background:new    ;}
	.st4{fill:none;stroke:#6199F2;stroke-width:4;stroke-miterlimit:10;}
	.st5{fill:none;stroke:#A2C0FC;stroke-width:4;stroke-miterlimit:10;}
	.st6{opacity:0.31;fill:#B1CEFC;enable-background:new    ;}
	.st7{fill:#A2C0FC;}
	.st8{fill:#CBF4F3;}
	.st9{fill:#FCCFF2;}
	.st10{fill:#A4F990;}
	.st11{fill:#BA94FF;}
	.st12{fill:#BA94FF;stroke:#6199F2;stroke-width:5.240119e-02;stroke-miterlimit:10;}
	.st13{fill:#F7EBD2;stroke:#A8844A;stroke-width:0.2096;stroke-miterlimit:10;}
	.st14{fill:#AD761D;}
	.st15{opacity:0.29;}
	.st16{fill:url(#SVGID_1_);}
	.st17{opacity:0.27;fill:#A8844A;enable-background:new    ;}
	.st18{fill:#041228;}
	.st19{fill:url(#SVGID_2_);stroke:#12233F;stroke-width:0.2096;stroke-miterlimit:10;}
	.st20{opacity:0.4;fill:url(#SVGID_3_);enable-background:new    ;}
	.st21{fill:#88AFFC;stroke:#488AF2;stroke-width:0.2096;stroke-miterlimit:10;}
	.st22{opacity:0.34;fill:url(#SVGID_7_);stroke:#488AF2;stroke-width:0.2096;stroke-miterlimit:10;enable-background:new    ;}
	.st23{opacity:0.43;fill:#88AFFC;enable-background:new    ;}
	.st24{fill:#B1CEFC;stroke:#6199F2;stroke-width:0.2096;stroke-miterlimit:10;}
	.st25{opacity:0.55;fill:url(#SVGID_8_);stroke:#6199F2;stroke-width:0.2096;stroke-miterlimit:10;enable-background:new    ;}
	.st26{opacity:0.32;fill:#B1CEFC;enable-background:new    ;}
	.st27{fill:#CADEFF;stroke:#6199F2;stroke-width:0.2096;stroke-miterlimit:10;}
	.st28{opacity:0.44;}
	.st29{fill:url(#SVGID_9_);}
	.st30{fill:#A2C0FC;stroke:#6199F2;stroke-width:0.2096;stroke-miterlimit:10;}
	.st31{fill:url(#SVGID_10_);}
	.st32{opacity:0.44;fill:#D3963D;enable-background:new    ;}
	.st33{fill:url(#SVGID_11_);}
	.st34{fill:url(#SVGID_12_);}
	.st35{fill:#F9DDAA;stroke:#A8844A;stroke-width:0.262;stroke-miterlimit:10;}
	.st36{fill:#F9DDAA;}
	.st37{fill:none;stroke:#AD761D;stroke-width:0.3144;stroke-linecap:round;stroke-miterlimit:10;}
	.st38{fill:#F7EBD2;stroke:#B58D4D;stroke-width:0.2096;stroke-miterlimit:10;}
	.st39{opacity:0.4;fill:url(#SVGID_13_);enable-background:new    ;}
	.st40{opacity:0.4;fill:url(#SVGID_14_);enable-background:new    ;}
	.st41{opacity:0.4;fill:url(#SVGID_15_);enable-background:new    ;}
	.st42{fill:#FCF9F2;}
	.st43{fill:#6199F2;}
	.st44{opacity:0.32;fill:url(#SVGID_16_);enable-background:new    ;}
</style>
<pattern  x="-306.5" y="590" width="121.3" height="125.8" patternUnits="userSpaceOnUse" id="SVGID_4_" viewBox="0 -125.8 121.3 125.8" style="overflow:visible;">
	<g>
		<rect y="-125.8" class="st0" width="121.3" height="125.8"/>
		<g>
			<rect y="-125.8" class="st0" width="121.3" height="125.8"/>
			<rect y="-125.8" class="st0" width="121.3" height="125.8"/>
			<line class="st1" x1="25.5" y1="-125.8" x2="25.5" y2="0"/>
			<line class="st1" x1="44.9" y1="-125.8" x2="44.9" y2="0"/>
			<line class="st1" x1="121.3" y1="-99.6" x2="0" y2="-99.6"/>
			<line class="st1" x1="121.3" y1="-80.2" x2="0" y2="-80.2"/>
			<line class="st2" x1="0" y1="-62.9" x2="121.3" y2="-62.9"/>
			<line class="st2" x1="0" y1="-45.6" x2="121.3" y2="-45.6"/>
			<rect x="44.9" y="-80.2" class="st3" width="33.7" height="33.7"/>
		</g>
	</g>
</pattern>
<pattern  x="-306.5" y="590" width="121.3" height="125.8" patternUnits="userSpaceOnUse" id="SVGID_5_" viewBox="0 -125.8 121.3 125.8" style="overflow:visible;">
	<g>
		<rect y="-125.8" class="st0" width="121.3" height="125.8"/>
		<g>
			<rect y="-125.8" class="st0" width="121.3" height="125.8"/>
			<rect y="-125.8" class="st0" width="121.3" height="125.8"/>
			<line class="st4" x1="25.5" y1="-125.8" x2="25.5" y2="0"/>
			<line class="st4" x1="44.9" y1="-125.8" x2="44.9" y2="0"/>
			<line class="st4" x1="121.3" y1="-99.6" x2="0" y2="-99.6"/>
			<line class="st4" x1="121.3" y1="-80.2" x2="0" y2="-80.2"/>
			<line class="st5" x1="0" y1="-62.9" x2="121.3" y2="-62.9"/>
			<line class="st5" x1="0" y1="-45.6" x2="121.3" y2="-45.6"/>
			<rect x="44.9" y="-80.2" class="st6" width="33.7" height="33.7"/>
		</g>
	</g>
</pattern>
<pattern  x="-306.5" y="590" width="121.3" height="125.8" patternUnits="userSpaceOnUse" id="SVGID_6_" viewBox="0 -125.8 121.3 125.8" style="overflow:visible;">
	<g>
		<rect y="-125.8" class="st0" width="121.3" height="125.8"/>
		<g>
			<rect y="-125.8" class="st0" width="121.3" height="125.8"/>
			<rect y="-125.8" class="st0" width="121.3" height="125.8"/>
			<line class="st4" x1="25.5" y1="-125.8" x2="25.5" y2="0"/>
			<line class="st4" x1="44.9" y1="-125.8" x2="44.9" y2="0"/>
			<line class="st4" x1="121.3" y1="-99.6" x2="0" y2="-99.6"/>
			<line class="st4" x1="121.3" y1="-80.2" x2="0" y2="-80.2"/>
			<line class="st5" x1="0" y1="-62.9" x2="121.3" y2="-62.9"/>
			<line class="st5" x1="0" y1="-45.6" x2="121.3" y2="-45.6"/>
			<rect x="44.9" y="-80.2" class="st6" width="33.7" height="33.7"/>
		</g>
	</g>
</pattern>
<title>human-good</title>
<g>
	<g id="Calque_2_1_">
		<g id="Calque_2-2">
			<ellipse class="st7" cx="116.3" cy="175.9" rx="11.1" ry="4.1"/>
			<path class="st8" d="M119.9,47.9c1.6-1.4,3.3-2.8,4.9-4.2l2.5-2.1l2.5-2.1c0.8-0.7,1.6-1.4,2.4-2.1c0.4-0.3,0.8-0.7,1.2-1
				c0.4-0.3,0.8-0.6,1.3-1c0.9-0.6,1.8-1.2,2.7-1.8c0.5-0.3,0.9-0.6,1.4-0.8c0.5-0.3,1-0.5,1.4-0.8l0.1,0.1
				c-0.4,0.4-0.7,0.8-1.1,1.2c-0.4,0.4-0.8,0.8-1.2,1.1c-0.8,0.7-1.6,1.5-2.4,2.1c-0.4,0.3-0.8,0.7-1.2,1c-0.4,0.3-0.9,0.6-1.3,1
				c-0.9,0.6-1.8,1.2-2.6,1.9l-2.6,1.9l-2.6,1.9c-1.7,1.2-3.5,2.5-5.3,3.7L119.9,47.9z"/>
			<path class="st8" d="M132.4,71.5c2.4-0.4,4.8-0.8,7.1-1.1l3.6-0.5l3.6-0.5c1.2-0.2,2.4-0.4,3.6-0.5c0.6-0.1,1.2-0.2,1.8-0.2
				c0.6-0.1,1.2-0.1,1.8-0.2c1.2-0.1,2.4-0.1,3.6-0.2c0.6,0,1.2,0,1.8,0c0.6,0,1.2,0,1.8,0.1l0,0.2c-0.6,0.2-1.2,0.3-1.8,0.5
				c-0.6,0.1-1.2,0.3-1.8,0.4c-1.2,0.2-2.4,0.5-3.5,0.6c-0.6,0.1-1.2,0.2-1.8,0.2s-1.2,0.1-1.8,0.2c-1.2,0.1-2.4,0.1-3.6,0.3
				l-3.6,0.3l-3.6,0.3c-2.4,0.2-4.8,0.3-7.2,0.5L132.4,71.5z"/>
			<path class="st8" d="M132.4,88.3c1.4-0.2,2.9-0.4,4.3-0.5l1.1-0.1l1.1-0.1l1.1-0.1l1.1-0.1c0.7-0.1,1.4-0.2,2.2-0.3
				c0.4,0,0.7-0.1,1.1-0.1c0.4,0,0.7,0,1.1,0c0.7,0,1.4,0.1,2.2,0.1c0.4,0,0.7,0.1,1.1,0.1c0.2,0,0.4,0.1,0.5,0.1
				c0.2,0,0.4,0.1,0.5,0.1v0.2c-0.2,0.1-0.4,0.1-0.5,0.2c-0.2,0.1-0.4,0.1-0.5,0.1c-0.4,0.1-0.7,0.2-1.1,0.3
				c-0.7,0.1-1.4,0.3-2.1,0.3c-0.4,0-0.7,0.1-1.1,0.1c-0.4,0-0.7,0-1.1,0c-0.7,0-1.4-0.1-2.2-0.1h-1.1h-1.1l-1.1,0l-1.1,0
				c-1.4,0-2.9-0.1-4.3-0.1L132.4,88.3z"/>
			<path class="st8" d="M132.4,111.2c2.4,1.3,4.9,2.6,7.3,3.9l3.6,2l3.6,2c1.2,0.7,2.4,1.3,3.7,2c0.6,0.3,1.2,0.7,1.8,1
				c0.6,0.3,1.2,0.7,1.8,1.1c1.2,0.7,2.3,1.5,3.5,2.3c0.6,0.4,1.1,0.8,1.7,1.2c0.6,0.4,1.1,0.8,1.6,1.3l-0.1,0.1
				c-0.6-0.3-1.3-0.5-1.9-0.8c-0.6-0.3-1.3-0.6-1.9-0.9c-1.2-0.6-2.5-1.2-3.7-1.9c-0.6-0.3-1.2-0.7-1.8-1c-0.6-0.4-1.2-0.7-1.8-1.1
				c-1.2-0.7-2.3-1.5-3.5-2.2l-3.5-2.2l-3.5-2.2c-2.3-1.5-4.7-3-7-4.5L132.4,111.2z"/>
			<path class="st8" d="M52.9,122c-1.4,1.9-2.8,3.7-4.2,5.5l-2.1,2.7l-2.2,2.7c-0.7,0.9-1.4,1.8-2.1,2.8c-0.4,0.5-0.7,0.9-1.1,1.4
				c-0.4,0.5-0.8,0.9-1.2,1.3c-0.8,0.8-1.6,1.7-2.4,2.5c-0.4,0.4-0.8,0.8-1.3,1.2s-0.9,0.8-1.3,1.2l-0.1-0.1c0.3-0.5,0.6-1,0.9-1.5
				c0.3-0.5,0.6-1,1-1.5c0.7-1,1.4-1.9,2.1-2.8c0.4-0.5,0.7-0.9,1.1-1.4c0.4-0.5,0.8-0.9,1.2-1.3c0.8-0.8,1.6-1.7,2.4-2.6l2.3-2.6
				L48,127c1.6-1.7,3.1-3.4,4.7-5.1L52.9,122z"/>
			<path class="st8" d="M52.8,89.8c-2.6,1.4-5.2,2.7-7.8,4.1l-3.9,2l-3.9,2c-1.3,0.7-2.6,1.4-3.9,2l-1,0.5c-0.3,0.2-0.6,0.3-1,0.5
				c-0.7,0.3-1.3,0.6-2,0.9c-1.4,0.6-2.7,1.2-4.1,1.7c-0.7,0.3-1.4,0.5-2.1,0.8c-0.7,0.3-1.4,0.5-2.1,0.7l-0.1-0.1
				c0.6-0.4,1.2-0.8,1.9-1.2c0.6-0.4,1.3-0.8,1.9-1.1c1.3-0.7,2.6-1.4,3.9-2.1c0.6-0.3,1.3-0.7,2-1c0.3-0.2,0.7-0.3,1-0.5l1-0.5
				c1.4-0.6,2.7-1.2,4-1.8l4-1.8l4-1.8c2.7-1.2,5.4-2.4,8.1-3.5L52.8,89.8z"/>
			<line class="st0" x1="55" y1="65.3" x2="21.1" y2="67"/>
			<path class="st8" d="M59,46.9c-3.5-2.8-6.9-5.6-10.4-8.4l-5.2-4.2l-5.2-4.2c-1.7-1.4-3.5-2.8-5.2-4.2l-1.3-1.1
				c-0.4-0.4-0.9-0.7-1.3-1.1c-0.8-0.7-1.7-1.4-2.5-2.2c-1.7-1.5-3.3-3-5-4.5c-1.6-1.5-3.2-3.1-4.8-4.7l0.1-0.1
				c1.9,1.3,3.6,2.6,5.4,3.9c1.8,1.4,3.5,2.7,5.3,4.1c0.9,0.7,1.7,1.4,2.6,2.1c0.4,0.4,0.8,0.7,1.3,1.1l1.3,1.1c1.7,1.5,3.3,3,5,4.4
				l5,4.4l5,4.4c3.3,3,6.7,5.9,10,8.9L59,46.9z"/>
			<path class="st8" d="M70.1,30.4c-1-2.4-2.1-4.8-3.1-7.2l-1.5-3.6L64,15.9c-0.5-1.2-1-2.4-1.5-3.6c-0.3-0.6-0.5-1.2-0.7-1.8
				c-0.2-0.6-0.5-1.2-0.7-1.9c-0.4-1.2-0.8-2.5-1.2-3.8c-0.2-0.6-0.4-1.3-0.5-1.9S59.1,1.7,59,1L59.1,1c0.3,0.6,0.6,1.2,1,1.7
				s0.6,1.2,0.9,1.8c0.6,1.2,1.1,2.4,1.6,3.6c0.3,0.6,0.5,1.2,0.7,1.8c0.2,0.6,0.5,1.2,0.7,1.9c0.4,1.2,0.8,2.5,1.3,3.7l1.3,3.7
				l1.3,3.7c0.8,2.5,1.7,5,2.5,7.5L70.1,30.4z"/>
			<path class="st8" d="M106.5,24.1c0.8-2,1.7-4,2.6-5.9l1.3-3l1.3-2.9c0.5-1,0.9-2,1.3-3c0.2-0.5,0.4-1,0.7-1.5
				c0.2-0.5,0.5-1,0.7-1.4c0.5-1,1.1-1.9,1.6-2.8c0.3-0.5,0.6-0.9,0.9-1.4s0.6-0.9,1-1.3L118,1c-0.1,0.5-0.3,1.1-0.5,1.6
				s-0.3,1-0.5,1.5c-0.4,1-0.8,2-1.2,3c-0.2,0.5-0.5,1-0.7,1.5c-0.2,0.5-0.5,1-0.7,1.4c-0.5,0.9-1,1.9-1.5,2.8l-1.5,2.8l-1.5,2.8
				c-1,1.9-2.1,3.8-3.1,5.7L106.5,24.1z"/>
			<circle class="st9" cx="54.8" cy="27.7" r="1.9"/>
			<circle class="st10" cx="123" cy="20.9" r="1.7"/>
			<circle class="st10" cx="48.3" cy="55.7" r="1.9"/>
			<circle class="st10" cx="32.4" cy="72.5" r="2.5"/>
			<circle class="st11" cx="32.8" cy="112.3" r="2.9"/>
			<circle class="st9" cx="153.8" cy="102.2" r="2.6"/>
			<circle class="st12" cx="132.5" cy="130.5" r="2.4"/>
			<path class="st13" d="M77.9,33.1c0,0,8-18.7,18.1-24.2c1-3,1.7-4.8,1.7-4.8s-0.5-2.2,1.5-2.5s2.6-0.2,4.3-1.2
				c1.7-1,4.8,0.3,3,4.2c-0.3,1.9-0.1,4.5-0.1,4.5s-0.3,2.6-2.9,2.7c-1.1,1.4-4.1,1.3-4.1,1.3s-11,11.7-13.5,21.7
				C82.3,34.7,77.9,33.1,77.9,33.1z"/>
			<path class="st14" d="M86,34.7c0.2-1,0.5-2.1,0.9-3.1l0.3-0.8l0.3-0.7l0.1-0.2c0-0.1,0.1-0.1,0.1-0.2l0.2-0.4L88,29
				c0.1-0.1,0.1-0.2,0.2-0.4c0.9-1.9,2.1-3.8,3.2-5.6c1.2-1.8,2.5-3.5,3.8-5.2c0.7-0.8,1.4-1.7,2.1-2.5c0.7-0.8,1.4-1.6,2.2-2.4
				c-0.7,0.8-1.4,1.6-2.1,2.5l-0.5,0.6l-0.5,0.6l-0.5,0.6L95.4,18c-0.6,0.8-1.3,1.7-1.9,2.6c-0.3,0.4-0.6,0.9-0.9,1.3l-0.5,0.7
				c-0.1,0.2-0.3,0.5-0.5,0.7C91.1,24.1,90.5,25,90,26c-0.5,0.9-1.1,1.9-1.6,2.8c-0.1,0.1-0.1,0.2-0.2,0.4l-0.2,0.4l-0.2,0.4
				L87.8,30l-0.1,0.2l-0.3,0.7l-0.3,0.7C86.6,32.6,86.3,33.6,86,34.7z"/>
			<path class="st14" d="M86,34.7c0.2-1,0.6-2.1,0.9-3.1c0.1-0.3,0.2-0.5,0.3-0.8l0.3-0.7l0.1-0.2l0.1-0.2l0.2-0.4L88,29
				c0.1-0.1,0.1-0.2,0.2-0.4c0.5-1,1-1.9,1.5-2.8c0.1-0.2,0.3-0.5,0.4-0.7l0.4-0.7c0.1-0.1,0.1-0.2,0.2-0.3l0.2-0.3l0.2-0.3l0.2-0.3
				c0.1-0.2,0.3-0.5,0.5-0.7l0.5-0.7c0.3-0.4,0.6-0.9,0.9-1.3c0.6-0.9,1.3-1.7,2-2.6l0.5-0.6l0.5-0.6l0.5-0.6l0.5-0.6
				c0.7-0.8,1.4-1.6,2.2-2.4l0,0l0,0c0.2-0.2,0.5-0.4,0.7-0.6c0.2-0.2,0.5-0.4,0.6-0.6c0.2-0.2,0.4-0.4,0.6-0.6
				c0.2-0.2,0.4-0.5,0.5-0.7c-0.1,0.3-0.3,0.5-0.5,0.8c-0.2,0.2-0.4,0.5-0.6,0.7c-0.2,0.2-0.4,0.4-0.6,0.6c-0.2,0.2-0.4,0.4-0.7,0.6
				l0,0c-1.4,1.6-2.8,3.3-4.1,5c-0.6,0.8-1.3,1.7-1.9,2.6c-0.6,0.9-1.2,1.7-1.8,2.6c-1.2,1.8-2.3,3.6-3.3,5.5c-0.5,1-1,1.9-1.4,2.9
				C86.6,32.6,86.3,33.6,86,34.7z"/>
			<g class="st15">
				<path class="st14" d="M105.6,4c0.1,0.6,0.2,1.3,0.2,1.9c0,0.6,0,1.3-0.1,1.9c-0.1,0.6-0.2,1.3-0.5,1.9c-0.1,0.3-0.3,0.6-0.5,0.8
					c-0.2,0.3-0.5,0.4-0.8,0.5c0.1-0.1,0.3-0.2,0.4-0.3c0.1-0.1,0.2-0.2,0.3-0.4c0.2-0.3,0.3-0.5,0.4-0.8c0.2-0.6,0.3-1.2,0.4-1.8
					c0.1-0.6,0.1-1.2,0.2-1.9C105.5,5.2,105.6,4.6,105.6,4z"/>
			</g>
			<g class="st15">
				<path class="st14" d="M84.7,34.4c0.1-0.5,0.2-1,0.3-1.5s0.3-1,0.5-1.5c0.3-1,0.7-2,1.2-2.9c0.4-1,0.9-1.9,1.5-2.8
					c0.3-0.5,0.6-0.9,0.9-1.3c0.3-0.4,0.7-0.8,1-1.2c-0.3,0.4-0.6,0.8-0.9,1.3c-0.1,0.1-0.1,0.2-0.2,0.3L88.9,25l-0.1,0.2l-0.2,0.3
					l-0.2,0.3c-0.5,0.9-1,1.8-1.4,2.8c-0.4,0.9-0.8,1.9-1.2,2.9C85.4,32.4,85.1,33.4,84.7,34.4z"/>
			</g>
			
				<linearGradient id="SVGID_1_" gradientUnits="userSpaceOnUse" x1="116.1698" y1="-317.5315" x2="123.6708" y2="-317.5315" gradientTransform="matrix(1 0 0 1 0 399.2)">
				<stop  offset="0" style="stop-color:#7B5829"/>
				<stop  offset="1" style="stop-color:#AF7931"/>
			</linearGradient>
			<path class="st16" d="M116.2,76v11.2c0,0,5,1.9,7.1-0.7c0.9-1,0-8.7-0.1-10.6c0-0.2-0.2-0.4-0.5-0.4c-0.1,0-0.1,0-0.2,0
				C121.6,76,119.3,76.7,116.2,76z"/>
			<path class="st13" d="M94.1,101.5l17.6-15.2h4.6v-6.5h1.8c0.7,0,1.3-0.6,1.3-1.3l0,0c0-0.7-0.6-1.3-1.3-1.3l0,0h-2.1
				c0,0-2.2,0.4-2.2,2.5v2.1l-16.6,7.5C97.3,89.3,93,98,94.1,101.5z"/>
			<path class="st13" d="M124.3,76c0,0-2.9,0.3-2.9,2v5.6c0,0,2.1,1.5,2.9,0C125.1,82.1,124.3,76,124.3,76z"/>
			<path class="st17" d="M99.4,88.4l-2.1,1c0,0-4.3,8.7-3.2,12.2l7.1-6.1L99.4,88.4z"/>
			<path class="st18" d="M110.4,142.1v1.7l-3.8,0.7c0,0,3,2,2.7,5.3c0.7-0.8,1.3-0.5,1.3-0.5s1.5,6.5,6.8,9.8l1-0.7
				c0,0-3.9-5.3-4.1-12.1S110.4,142.1,110.4,142.1z"/>
			<path class="st18" d="M96.4,145.5l5.6,10.2l1.6-2.2c0,0-3.7-10.4-3.6-13.6c0.1-3.3-2.5-1.7-2.5-1.7L96.4,145.5z"/>
			
				<linearGradient id="SVGID_2_" gradientUnits="userSpaceOnUse" x1="63.1891" y1="-271.1132" x2="127.3125" y2="-271.1132" gradientTransform="matrix(1 0 0 1 0 399.2)">
				<stop  offset="0" style="stop-color:#1B364A"/>
				<stop  offset="1" style="stop-color:#16547E"/>
			</linearGradient>
			<path class="st19" d="M63.3,111.5c0,0-2.4,14.9,13.1,41.5v6.3l7.5,2.1c0,0,5.1-1.7,5.4-4.6s3.5-9.1,6.8-10.7
				c2-3.2,3.5-6.9,3.5-6.9l-1.9-1.1l-11.5,8.6c0,0-2.8-9.6-1.4-23.7l4.4,1.4c0,0,19.7-9,30.7-20.8c-5.8,11-9,22-9.5,38.4
				c1.7,2.2,4,4.1,4,4.1s-2.8-23.4,12.9-46.4c-1.4-2.8-1.9-1.1-2.7-3.8c-0.8-2.7-5.2,0-5.2,0s-21.9,8.4-27.7,8.9L63.3,111.5z"/>
			
				<linearGradient id="SVGID_3_" gradientUnits="userSpaceOnUse" x1="63.176" y1="-282.4924" x2="81.8697" y2="-282.4924" gradientTransform="matrix(1 0 0 1 0 399.2)">
				<stop  offset="0" style="stop-color:#1B364A"/>
				<stop  offset="1" style="stop-color:#16547E"/>
			</linearGradient>
			<path class="st20" d="M63.2,113c-0.1,1.4,0,3.9,0.5,7.3c0,0,15.2,0.6,17.9-2.6C83.9,115,68,113.4,63.2,113z"/>
			<path class="st21" d="M95.6,87c0,0,6.1-10.2,10.1-15.7c1.4-1.9,1-4.6-1-6c-0.1-0.1-0.2-0.1-0.3-0.2c-2.8-1.7-5.6-3.2-5.6-3.2
				l-4.8,1.8L95.6,87z"/>
			
				<pattern  id="SVGID_7_" xlink:href="#SVGID_4_" patternTransform="matrix(5.184316e-02 -7.655944e-03 7.655944e-03 5.184316e-02 -8039.8804 -6493.1318)">
			</pattern>
			<path class="st22" d="M95.6,87c0,0,6.1-10.2,10.1-15.7c1.4-1.9,1-4.6-1-6c-0.1-0.1-0.2-0.1-0.3-0.2c-2.8-1.7-5.6-3.2-5.6-3.2
				l-4.8,1.8L95.6,87z"/>
			<path class="st23" d="M94.1,63.8L95.6,87c0,0,2.2-3.6,4.8-7.7L96.2,63L94.1,63.8z"/>
			<path class="st24" d="M81.6,114.1c0,0,1.3,3.2,5.8,1.8s12.3-5.9,12.3-5.9s-3.2-3.6-3.5-5.8c-1.4-2.2-2.1-2.7-2.1-2.7
				s1.2-7,3.2-12.2c2-5.2,7.7-19.9,5-23.2c-2.7-3.4-11,5.3-11,5.3S81,105.5,81.6,114.1z"/>
			
				<pattern  id="SVGID_8_" xlink:href="#SVGID_5_" patternTransform="matrix(5.240119e-02 0 0 5.240119e-02 -8012.4927 -6476.4199)">
			</pattern>
			<path class="st25" d="M81.6,114.1c0,0,1.3,3.2,5.8,1.8s12.3-5.9,12.3-5.9s-3.2-3.6-3.5-5.8c-1.4-2.2-2.1-2.7-2.1-2.7
				s1.2-7,3.2-12.2c2-5.2,7.7-19.9,5-23.2c-2.7-3.4-11,5.3-11,5.3S81,105.5,81.6,114.1z"/>
			<path class="st26" d="M93.5,102.2c0,0-5.9,6.9-5.7,9.8c0.2,2.9,2.6-0.7,2.6-0.7s3.3-5.8,5.2-6.4
				C95.3,103.8,93.5,102.2,93.5,102.2z"/>
			<path class="st27" d="M104.3,65l-22.6-2.3l-1.7-4.5c0,0,4.6-19,9.3-24.9c-3.4-2.2-8.1-4.4-12.6-2.8C73,47.5,58,73,66.1,90.8
				c-0.9,3.5-7.7,17.4-7,23.5c9.3,1.9,17.7,6,22.6,3.5c0-4,0.1-5.5,1.7-9.2c1.7-3.8,10.5-31.1,7.9-37.1c-2.6-6,11-5.3,11-5.3
				L104.3,65z"/>
			<g class="st28">
				
					<pattern  id="SVGID_9_" xlink:href="#SVGID_6_" patternTransform="matrix(5.240119e-02 0 0 5.240119e-02 -8012.4927 -6476.4199)"  class="st28">
				</pattern>
				<path class="st29" d="M104.3,65l-22.6-2.3l-1.7-4.5c0,0,4.6-19,9.3-24.9c-3.4-2.2-8.1-4.4-12.6-2.8C73,47.5,58,73,66.1,90.8
					c-0.9,3.5-7.7,17.4-7,23.5c9.3,1.9,17.7,6,22.6,3.5c0-4,0.1-5.5,1.7-9.2c1.7-3.8,10.5-31.1,7.9-37.1c-2.6-6,11-5.3,11-5.3
					L104.3,65z"/>
			</g>
			<path class="st30" d="M75.9,29.9c0,0-2.4,8.2-2.6,8.8c1.9,0,4.7-0.6,5.8-0.6c1.1,0,6.3,2.9,6.4,3.8c0.8-1.4,3-7.6,4.2-8.6
				C88.9,32.8,84.4,28.2,75.9,29.9z"/>
			
				<linearGradient id="SVGID_10_" gradientUnits="userSpaceOnUse" x1="83.8399" y1="-352.1761" x2="110.3671" y2="-352.1761" gradientTransform="matrix(1 0 0 1 0 399.2)">
				<stop  offset="0" style="stop-color:#6F4E29"/>
				<stop  offset="0.18" style="stop-color:#735129"/>
				<stop  offset="0.31" style="stop-color:#7B5829"/>
				<stop  offset="1" style="stop-color:#AF7931"/>
			</linearGradient>
			<path class="st31" d="M103,51.8l5.5-5.9c1.3-1.4,1.9-3.2,1.8-5c-0.1-2.4-0.6-5.3-1.8-4.3c-1.1,0.8-9.9,2-12.7,0.8
				c-4.2-1.8-5,2.4-5,2.4S87.5,50.5,83.8,53c0.4,2.6,0.8,4.6,0.8,4.6L103,51.8z"/>
			<path class="st32" d="M94.9,42c0,0-0.5-2.8,3-2.6c3.5,0.2,9.4,0.1,10.6-2.7c-8.2,3.8-13.6,0.8-13.6,0.8S93.5,40.7,94.9,42z"/>
			<path class="st32" d="M108.3,39.2c0.9-3.2-1.9,9.5-5.2,12.6c-3.4,3-1.1-2.7-1.1-2.7S106.5,45.6,108.3,39.2z"/>
			<path class="st32" d="M97.5,43.9c0,0,6.3-1.6,11-7.3c-0.7,4.2-5,7.6-8.8,10.8C96.3,50.3,97.5,43.9,97.5,43.9z"/>
			
				<linearGradient id="SVGID_11_" gradientUnits="userSpaceOnUse" x1="81.6437" y1="-338.7114" x2="104.2531" y2="-338.7114" gradientTransform="matrix(1 0 0 1 0 399.2)">
				<stop  offset="0" style="stop-color:#7B5829"/>
				<stop  offset="1" style="stop-color:#AF7931"/>
			</linearGradient>
			<path class="st33" d="M87,51.2l-5.3,11.6c0,0,6.7,6.9,7.5,8.9s3.7,1.9,6.4-0.4c2.7-2.3,7.5-6,8.7-6.2c-0.4-2.1-1.2-7.7-0.8-9.9
				S92.3,48,92.3,48h-2.2L87,51.2z"/>
			<path class="st32" d="M92.3,66.5c-1.7-0.2-3.5,0.8-4.8,2.7c0.8,1,1.5,1.9,1.7,2.4C89.2,71.6,89.8,68.4,92.3,66.5z"/>
			<path class="st32" d="M84,65.3c0.5,0.5,1,1.1,1.6,1.7c0.8-0.9,2-2,3.6-2.5C87.7,63.9,85.9,64.1,84,65.3z"/>
			
				<linearGradient id="SVGID_12_" gradientUnits="userSpaceOnUse" x1="91.7423" y1="-337.2512" x2="104.2531" y2="-337.2512" gradientTransform="matrix(1 0 0 1 0 399.2)">
				<stop  offset="0" style="stop-color:#7B5829"/>
				<stop  offset="1" style="stop-color:#AF7931"/>
			</linearGradient>
			<path class="st34" d="M95.6,71.2c2.7-2.3,7.5-6,8.7-6.2c-0.4-2.1-1.2-7.7-0.8-9.9c0.2-1.1-2.4-2.8-5.2-4.3
				c-0.3,3.3-0.9,11.7-1.2,12.3c-0.3,0.6-3.1,7.1-5.4,9.9C92.9,72.9,94.2,72.4,95.6,71.2z"/>
			<path class="st35" d="M102.7,55.3c0,0,2.3,1.3,3-1.2c0.6-2.5-2.6-2.3-2.6-2.3L102.7,55.3z"/>
			<path class="st14" d="M104.7,53.3c-0.1,0.1-0.2,0.3-0.4,0.3c-0.1,0.1-0.3,0.2-0.5,0.2c-0.2,0.1-0.4,0.1-0.5,0
				c-0.1,0-0.2,0-0.3-0.1c0,0-0.1,0-0.1,0l-0.1,0l-0.1-0.1l0.2-0.3l0.1,0.1c0,0,0.1,0,0.1,0.1c0.1,0,0.1,0.1,0.2,0.1
				c0.1,0.1,0.3,0.1,0.5,0.1c0.2,0,0.3-0.1,0.5-0.1C104.5,53.5,104.6,53.4,104.7,53.3z"/>
			<path class="st13" d="M93.5,45.1l-3.7,9.2l-1.3,0.9c0,0,1.7,3.2,1.7,6.1c1.2-0.1,2.1-0.1,5,0c2.9,0.1,3.5,0.8,3.5,0.8l3.4-2.9
				l1.5-5v-3.5l0.6-2.9c0,0-1.1-3.3-5-4.1C95.1,42.9,93.5,45.1,93.5,45.1z"/>
			<path class="st36" d="M98.6,61.8c-0.3-0.2-1.2-0.6-3.4-0.7l0.5-2.2l1.9-0.3l0.8-0.9l-0.7-4.4l2.2-9.1c2.8,1,3.8,3.3,3.9,3.7
				l-0.5,2.9v3.5l-1.5,4.9L98.6,61.8z"/>
			<path class="st14" d="M93.6,57.6c0.3,0.2,0.6,0.3,0.9,0.5c0.3,0.1,0.6,0.3,1,0.4c0.3,0.1,0.7,0.1,1,0.1c0.3,0,0.7-0.1,1-0.2
				c-0.3,0.3-0.6,0.4-1,0.5c-0.4,0.1-0.8,0-1.1-0.1c-0.4-0.1-0.7-0.3-1-0.5C94.1,58.2,93.8,57.9,93.6,57.6z"/>
			<line class="st37" x1="99.2" y1="53.3" x2="100.3" y2="53.3"/>
			<line class="st37" x1="95.7" y1="52.4" x2="94.1" y2="51.7"/>
			<path class="st38" d="M90.1,48c0,0-2.1-2.5-3.9,0s1.9,3.8,1.9,3.8L90.1,48z"/>
			<path class="st14" d="M87,49.3c0.2-0.1,0.4-0.2,0.6-0.2c0.2,0,0.4,0,0.6,0c0.2,0,0.4,0.1,0.6,0.2c0.2,0.1,0.4,0.3,0.5,0.4
				L89,49.9c-0.1-0.2-0.2-0.3-0.4-0.4c-0.1-0.1-0.3-0.2-0.5-0.3c-0.2-0.1-0.4-0.1-0.6-0.1C87.4,49.2,87.2,49.2,87,49.3z"/>
			<path class="st36" d="M100.3,42.9c0.4-0.2,0.8-0.3,1.2-0.5s0.8-0.4,1.2-0.6c0.8-0.5,1.5-0.9,2.2-1.5c0.3-0.3,0.7-0.5,1-0.8
				l0.2-0.2l0.1-0.1l0.1-0.1c0.1-0.1,0.2-0.1,0.2-0.2l0.2-0.2c0.1-0.1,0.1-0.2,0.2-0.2c0.1-0.1,0.1-0.2,0.2-0.2
				c0.1-0.2,0.3-0.3,0.4-0.5c0.3-0.3,0.5-0.7,0.8-1l0.1,0.1c-0.5,0.2-1,0.4-1.5,0.6c-0.5,0.2-1,0.3-1.6,0.5c-1,0.3-2.1,0.5-3.2,0.7
				c-0.5,0.1-1.1,0.1-1.6,0.1c-0.1,0-0.3,0-0.4,0l-0.2,0l-0.1,0c0,0-0.1,0-0.1,0l-0.2,0c-0.1,0-0.1,0-0.2,0c-0.1,0-0.1,0-0.2-0.1
				L99,38.3l-3.2-0.8h0l0,0c-0.1-0.1-0.3-0.2-0.5-0.2c-0.1,0-0.2,0-0.2,0.1c-0.1,0.1-0.1,0.1-0.2,0.2c-0.1,0.2-0.2,0.3-0.3,0.5
				c0,0.1-0.1,0.2-0.1,0.3l-0.1,0.3c0,0.1,0,0.2-0.1,0.3l-0.1,0.3l0,0.1l0,0.1l-0.1,0.3c-0.1,0.2-0.1,0.4-0.2,0.6L93.8,41
				c-0.3,0.8-0.5,1.5-0.8,2.3c-0.3,0.8-0.6,1.5-0.9,2.3c0.1-0.4,0.3-0.8,0.4-1.1c0.1-0.4,0.3-0.8,0.4-1.2c0.3-0.8,0.5-1.5,0.8-2.3
				l0.2-0.6c0.1-0.2,0.1-0.4,0.2-0.6l0.1-0.3l0-0.1l0-0.1l0.1-0.3c0-0.1,0-0.2,0.1-0.3l0.1-0.3c0-0.1,0.1-0.2,0.1-0.3
				c0.1-0.2,0.1-0.4,0.3-0.6c0.1-0.1,0.1-0.2,0.2-0.2s0.2-0.1,0.3-0.1c0.1,0,0.1,0,0.2,0c0.1,0,0.1,0,0.2,0.1s0.1,0.1,0.1,0.1
				c0.1,0,0.1,0.1,0.1,0.1l0,0l3.2,0.8l0.2,0.1c0.1,0,0.1,0,0.2,0c0.1,0,0.1,0,0.2,0l0.2,0c0,0,0.1,0,0.1,0l0.1,0l0.2,0
				c0.1,0,0.3,0,0.4,0c0.5,0,1.1,0,1.6-0.1c1.1-0.1,2.1-0.4,3.2-0.7c1-0.3,2.1-0.6,3.1-1.1l0.3-0.1l-0.2,0.3c-0.5,0.7-1.1,1.4-1.7,2
				l-0.2,0.2c-0.1,0.1-0.2,0.1-0.2,0.2l-0.1,0.1l-0.1,0.1l-0.3,0.2c-0.3,0.3-0.7,0.6-1,0.8c-0.7,0.5-1.4,1-2.2,1.4
				C101.9,42.3,101.1,42.6,100.3,42.9z"/>
			<path class="st36" d="M108.6,36.7c-0.1,0.4-0.2,0.7-0.4,1.1c-0.1,0.4-0.3,0.7-0.5,1.1c-0.2,0.3-0.4,0.7-0.6,1
				c-0.2,0.3-0.4,0.6-0.6,1c-0.5,0.6-0.9,1.2-1.4,1.8c-0.5,0.6-1,1.1-1.6,1.7c0.6-0.5,1.1-1.1,1.6-1.7c0.5-0.6,1-1.2,1.4-1.8
				c0.2-0.3,0.4-0.6,0.6-1s0.4-0.7,0.5-1c0.2-0.3,0.3-0.7,0.5-1c0.1-0.4,0.3-0.7,0.4-1.1L108.6,36.7z"/>
			<path class="st36" d="M104.7,46.8c0.3-0.4,0.6-0.7,0.8-1.1c0.3-0.4,0.5-0.8,0.7-1.2c0.4-0.8,0.8-1.7,1.2-2.5
				c0.3-0.9,0.6-1.7,0.8-2.6c0.2-0.9,0.3-1.8,0.3-2.7h0.2c0,0.9-0.1,1.9-0.3,2.8c-0.2,0.9-0.5,1.8-0.8,2.6c-0.3,0.9-0.7,1.7-1.2,2.5
				c-0.2,0.4-0.5,0.8-0.7,1.2C105.3,46.1,105,46.5,104.7,46.8z"/>
			
				<linearGradient id="SVGID_13_" gradientUnits="userSpaceOnUse" x1="83.9479" y1="-281.3308" x2="111.3095" y2="-281.3308" gradientTransform="matrix(1 0 0 1 0 399.2)">
				<stop  offset="0" style="stop-color:#1B364A"/>
				<stop  offset="1" style="stop-color:#16547E"/>
			</linearGradient>
			<path class="st39" d="M84.7,123l4.4,1.4c0,0,11.7-5.3,22.1-13.2c-1.8,0.7-10,6-13.7,6.8c-9,2-11-0.3-13.7,1.2
				C83.9,119.3,85,119.3,84.7,123z"/>
			
				<linearGradient id="SVGID_14_" gradientUnits="userSpaceOnUse" x1="86.096" y1="-252.502" x2="90.8663" y2="-252.502" gradientTransform="matrix(1 0 0 1 0 399.2)">
				<stop  offset="0" style="stop-color:#1B364A"/>
				<stop  offset="1" style="stop-color:#16547E"/>
			</linearGradient>
			<path class="st40" d="M86.1,146.8c0.3,1.2,0.6,2.3,1.1,3.5c0,0,0.9-3.6,3.6-7.1L86.1,146.8z"/>
			
				<linearGradient id="SVGID_15_" gradientUnits="userSpaceOnUse" x1="76.3617" y1="-243.0065" x2="80.34" y2="-243.0065" gradientTransform="matrix(1 0 0 1 0 399.2)">
				<stop  offset="0" style="stop-color:#1B364A"/>
				<stop  offset="1" style="stop-color:#16547E"/>
			</linearGradient>
			<path class="st41" d="M80.3,155.4c-1.2,0-3.3-1.2-4-2.3v6.3C76.7,157.2,78.3,157.4,80.3,155.4z"/>
			<path class="st42" d="M116.7,76.3c0,0-0.3-1.2,0.3-1.6c-0.5-0.8-2-1.9-1.5-4.8c0.5-2.9,0.2-3.7,0.2-3.7s-0.6-1.7,2.1-1.5
				c2.7,0.2,3.2-2.9,1.7-3.6c-1.5-0.6-1.3-2-0.4-3.2c-0.7-1.2-2.2-5.2,3.5-7.1c5.7-1.9,3-4.7,3-4.7s4.7,2.4,0.3,7.4
				c-4.4,5,0.3,6.2,0.3,6.2s3.4,0.7,1.6,4.9c-1.4,0.1-2.2,0.9-1.3,2.1c0.9,1.2,0.3,7.1-3.4,8.1v0.9C123,75.6,118.4,77.4,116.7,76.3z
				"/>
			<path class="st26" d="M81.7,64.8l0.5,2.1c0,0,0,0.1,0,0.1c-0.2,0.6-1.8,5.9-4.9,9.5c0,0,0,0,0,0L76,78.8c0,0-0.1,0.1-0.1,0.1
				c-0.2,0.1-1,0.4-1.1,0c-0.1-0.5-1.3-4.2-1.4-4.6c0,0,0-0.1,0-0.1v-1.5c0-0.1-0.1-0.3-0.3-0.3c-0.1,0-0.1,0-0.2,0.1l-0.6,0.5
				c-0.1,0.1-0.1,0.2-0.1,0.3l0.6,2.3c0,0,0,0,0,0.1c0.1,0.3,1.9,4,1.3,4.6c-0.4,0.5-0.7,1.1-0.8,1.4c0,0.1-0.1,0.1-0.2,0.2
				c-0.7,0.2-4.3,1.2-5.8,1.8c-1,0.4-1.9-0.4-2.5-1.3c-0.1-0.2-0.5-0.1-0.5,0.2c0.3,2.5,1.1,5.7,1.9,7.2c0.1,0.1,0.2,0.2,0.4,0.1
				c0.1,0,0.1-0.1,0.1-0.2c0.8-3.3,1.7-5.3,2.9-5.3c1.1,0,3.1-1,4.2-1.9c0.1-0.1,0.3-0.1,0.4,0c0.1,0.1,0.1,0.1,0.1,0.2
				c-0.5,2.2-1.1,3.8-1.6,5.1c-0.1,0.3,0.4,0.5,0.5,0.2c0.9-2.3,1.9-5.3,2.3-5.3c0.2,0,0.4,0.2,0.5,0.4c0.1,0.1,0.2,0.2,0.4,0.1
				c0.1,0,0.1-0.1,0.1-0.2c0.1-0.6,0.2-1.4-0.2-1.9c-0.1-0.1-0.1-0.3,0-0.3c2.1-2.3,7.3-7.7,7.5-11.9c0-0.1,0.1-0.3,0.3-0.3
				c0.1,0,0.1,0,0.2,0.1c2.1,2.4,3.5,3.7,4.4,4.2c0.1,0.1,0.3,0.1,0.4-0.1c0.1-0.1,0.1-0.2,0-0.3c-1.5-2.1-5.1-7.3-7-8
				c-0.1-0.1-0.3,0-0.3,0.1C81.7,64.7,81.7,64.8,81.7,64.8z"/>
			<path class="st26" d="M80.4,67c0,0-3.7-0.1-4.8,0s4.8,0.9,4.3,2.9c0.9-1.5,1.6-2.9,1.6-2.9H80.4z"/>
			<path class="st26" d="M69.7,65c0,0-3.4,2.7-3.9,5.4c0.6-3.5,0.9-7.3,2-10C67.7,62.1,67.9,64.9,69.7,65z"/>
			<path class="st26" d="M78.5,58.2L77,61.4c0,0,3,0,3.3,0.5C79.3,58.8,78.5,58.2,78.5,58.2z"/>
			<path class="st26" d="M76.5,49.5l-4.9,15c0,0-0.8,7.4-1.5,11.9c0,0.1,0.1,0.2,0.1,0.2c0.1,0,0.1,0,0.2-0.1
				C71.9,70,74.3,56.7,76.5,49.5z"/>
			<path class="st26" d="M61.1,111.4l2.4-5.7c0.3-0.7,0.5-1.4,0.6-2.1l1.1-6.9l-1.1,14.7c-0.1,1-0.9,1.7-1.9,1.6
				c-0.1,0-0.2,0-0.4-0.1l0,0c-0.6-0.2-0.9-0.8-0.8-1.4C61.1,111.5,61.1,111.5,61.1,111.4z"/>
			<path class="st26" d="M80.1,116.5c0,0-0.7-7.8,1.5-13.9c2.2-6.1,0.6-12.5,0.6-12.5s0.3,10.4-3.8,15.5c-4.1,5.1-3.6,10.9-3.6,10.9
				S77,117.9,80.1,116.5z"/>
			<polygon class="st26" points="74.8,37 79.1,36.4 76.6,30.4 			"/>
			<path class="st26" d="M88.5,33.5c0,0-6.2,4.1-6.7,4.2s3.2,0.9,3.3,2.4C86.2,37.7,88.5,33.5,88.5,33.5z"/>
			<path class="st43" d="M75.4,35.8c0.2-0.1,0.5-0.2,0.7-0.2s0.5-0.1,0.8-0.2c0.5-0.1,1-0.2,1.5-0.3c0.5-0.1,1-0.1,1.5,0
				c0.3,0,0.5,0.1,0.8,0.1c0.3,0.1,0.5,0.2,0.7,0.3v0c-0.3-0.1-0.5-0.1-0.7-0.2l-0.2,0l-0.2,0c-0.1,0-0.1,0-0.2,0h-0.1H80
				c-0.3,0-0.5,0-0.8,0c-0.1,0-0.3,0-0.4,0c-0.1,0-0.3,0-0.4,0c-0.5,0-1,0.1-1.5,0.2C76.5,35.5,76,35.6,75.4,35.8L75.4,35.8z"/>
			<path class="st43" d="M76.5,33.6c0.3-0.1,0.6-0.1,1-0.2c0.3-0.1,0.6-0.1,1-0.1c0.6-0.1,1.3-0.1,1.9-0.1s1.3,0,1.9,0.1
				c0.3,0.1,0.6,0.1,1,0.2c0.3,0.1,0.6,0.2,0.9,0.4v0c-0.6-0.2-1.2-0.3-1.9-0.4c-0.3,0-0.6-0.1-1-0.1c-0.2,0-0.3,0-0.5,0
				c-0.1,0-0.3,0-0.5,0c-0.6,0-1.3,0-1.9,0.1C77.8,33.5,77.2,33.5,76.5,33.6L76.5,33.6z"/>
			<path class="st43" d="M77.5,34.4c0.4-0.1,0.8-0.1,1.2-0.1c0.4,0,0.8,0,1.2,0c0.4,0,0.8,0,1.2,0.1c0.4,0,0.8,0.1,1.2,0.1
				c0.4,0.1,0.8,0.2,1.1,0.3c0.2,0.1,0.4,0.1,0.6,0.2l0.3,0.1l0.1,0l0.1,0l0.1,0.1c0.3,0.2,0.7,0.4,1,0.7s0.5,0.6,0.7,0.9l0,0
				c-0.2-0.3-0.5-0.6-0.8-0.8c-0.1-0.1-0.1-0.1-0.2-0.2l-0.2-0.2l-0.1,0l-0.1,0l-0.1-0.1l-0.1-0.1l-0.1-0.1
				c-0.2-0.1-0.3-0.2-0.5-0.2c-0.2-0.1-0.3-0.1-0.5-0.2c-0.4-0.1-0.7-0.2-1.1-0.3s-0.8-0.1-1.1-0.2c-0.4,0-0.8-0.1-1.2-0.1
				c-0.4,0-0.8,0-1.2,0C78.3,34.4,77.9,34.4,77.5,34.4L77.5,34.4z"/>
			<circle class="st9" cx="77.3" cy="10.9" r="1.8"/>
			<circle class="st42" cx="130.6" cy="31.9" r="2.4"/>
			<circle class="st42" cx="42.6" cy="73.3" r="1.7"/>
			
				<linearGradient id="SVGID_16_" gradientUnits="userSpaceOnUse" x1="81.6617" y1="-347.7957" x2="100.2389" y2="-347.7957" gradientTransform="matrix(1 0 0 1 0 399.2)">
				<stop  offset="0" style="stop-color:#1B364A"/>
				<stop  offset="1" style="stop-color:#16547E"/>
			</linearGradient>
			<path class="st44" d="M97.3,37.8l-1.4-0.4l0,0c0,0-0.3-0.3-0.6-0.2c-3.6-1.2-4.3,2.6-4.3,2.6s-1.2,3.6-2.8,7.1
				c-0.6,0-1.2,0.3-1.8,1.1c-0.7,1-0.6,1.8-0.1,2.4c-0.7,1.2-1.5,2.1-2.3,2.6c0.2,1.5,0.5,2.8,0.6,3.7l-2.8,6.1c0,0,1.1,1.1,2.4,2.5
				c0.2,0.2,0.3,0.4,0.5,0.6c2-6.5,6.5-17.6,15.7-27.9C99.2,38,98.2,37.9,97.3,37.8z"/>
		</g>
	</g>
</g>
</svg>
