<?xml version="1.0" encoding="utf-8"?>
<!-- Generator: Adobe Illustrator 22.0.1, SVG Export Plug-In . SVG Version: 6.00 Build 0)  -->
<svg version="1.1" id="Calque_1" xmlns="http://www.w3.org/2000/svg" xmlns:xlink="http://www.w3.org/1999/xlink" x="0px" y="0px"
	 viewBox="0 0 180 180" style="enable-background:new 0 0 180 180;" xml:space="preserve">
<style type="text/css">
	.st0{fill:none;}
	.st1{fill:none;stroke:#6199F2;stroke-width:4;stroke-miterlimit:10;}
	.st2{fill:none;stroke:#A2C0FC;stroke-width:4;stroke-miterlimit:10;}
	.st3{opacity:0.31;fill:#B1CEFC;enable-background:new    ;}
	.st4{fill:#BFBABB;}
	.st5{fill:#B81225;}
	.st6{fill:none;stroke:#A4F990;stroke-width:1.4764;stroke-miterlimit:10;}
	.st7{fill:#C7DBFB;}
	.st8{fill:#845D2A;}
	.st9{fill:#FFE7B6;}
	.st10{fill:#021225;}
	.st11{fill:#9CBDFA;}
	.st12{fill:#11293E;}
	.st13{fill:#1A3A51;}
	.st14{fill:#5D4620;}
	.st15{fill:#6199F2;}
	.st16{fill:#041228;}
	.st17{fill:url(#SVGID_1_);stroke:#12233F;stroke-width:0.1476;stroke-miterlimit:10;}
	.st18{opacity:0.4;}
	.st19{fill:url(#SVGID_2_);}
	.st20{fill:url(#SVGID_3_);}
	.st21{opacity:0.4;fill:url(#SVGID_4_);enable-background:new    ;}
	.st22{opacity:0.4;fill:url(#SVGID_5_);enable-background:new    ;}
	.st23{opacity:0.4;fill:url(#SVGID_6_);enable-background:new    ;}
	.st24{fill:#F7EBD2;stroke:#A8844A;stroke-width:0.1476;stroke-miterlimit:10;}
	.st25{fill:#F9DDAA;}
	.st26{fill:url(#SVGID_7_);}
	.st27{opacity:0.32;fill:url(#SVGID_8_);enable-background:new    ;}
	.st28{opacity:0.44;fill:#D3963D;enable-background:new    ;}
	.st29{fill:#F9DDAA;stroke:#A8844A;stroke-width:0.1845;stroke-miterlimit:10;}
	.st30{fill:#AD761D;}
	.st31{fill:url(#SVGID_9_);}
	.st32{fill:url(#SVGID_10_);}
	.st33{fill:#FFE7B6;stroke:#B58537;stroke-width:0.1476;stroke-miterlimit:10;}
	.st34{fill:#BA7506;}
	.st35{opacity:0.29;}
	.st36{opacity:0.56;fill:#F9DDAA;enable-background:new    ;}
	.st37{fill:#CADEFF;stroke:#6199F2;stroke-width:0.1476;stroke-miterlimit:10;}
	.st38{opacity:0.63;fill:url(#SVGID_13_);enable-background:new    ;}
	.st39{opacity:0.53;fill:url(#SVGID_14_);enable-background:new    ;}
	.st40{opacity:0.71;fill:#B1CEFC;enable-background:new    ;}
	.st41{opacity:0.63;fill:#6199F2;enable-background:new    ;}
	.st42{fill:#A2C0FC;stroke:#6199F2;stroke-width:0.1476;stroke-miterlimit:10;}
	.st43{fill:#B1CEFC;}
	.st44{fill:#6199F2;stroke:#A2C0FC;stroke-width:0.1476;stroke-miterlimit:10;}
	.st45{opacity:0.9;fill:#B1CEFC;enable-background:new    ;}
	.st46{fill:none;stroke:#12233F;stroke-width:0.2953;stroke-miterlimit:10;}
	.st47{fill:#A4F990;}
	.st48{fill:#BA94FF;}
	.st49{fill:#A2C0FC;}
	.st50{fill:#FCCFF2;}
	.st51{fill:none;stroke:#6199F2;stroke-width:0.3691;stroke-miterlimit:10;}
</style>
<pattern  x="-410" y="418.2" width="121.3" height="125.8" patternUnits="userSpaceOnUse" id="SVGID_11_" viewBox="0 -125.8 121.3 125.8" style="overflow:visible;">
	<g>
		<rect y="-125.8" class="st0" width="121.3" height="125.8"/>
		<g>
			<rect y="-125.8" class="st0" width="121.3" height="125.8"/>
			<rect y="-125.8" class="st0" width="121.3" height="125.8"/>
			<line class="st1" x1="25.5" y1="-125.8" x2="25.5" y2="0"/>
			<line class="st1" x1="44.9" y1="-125.8" x2="44.9" y2="0"/>
			<line class="st1" x1="121.3" y1="-99.6" x2="0" y2="-99.6"/>
			<line class="st1" x1="121.3" y1="-80.2" x2="0" y2="-80.2"/>
			<line class="st2" x1="0" y1="-62.9" x2="121.3" y2="-62.9"/>
			<line class="st2" x1="0" y1="-45.6" x2="121.3" y2="-45.6"/>
			<rect x="44.9" y="-80.2" class="st3" width="33.7" height="33.7"/>
		</g>
	</g>
</pattern>
<pattern  x="-410" y="418.2" width="121.3" height="125.8" patternUnits="userSpaceOnUse" id="SVGID_12_" viewBox="0 -125.8 121.3 125.8" style="overflow:visible;">
	<g>
		<rect y="-125.8" class="st0" width="121.3" height="125.8"/>
		<g>
			<rect y="-125.8" class="st0" width="121.3" height="125.8"/>
			<rect y="-125.8" class="st0" width="121.3" height="125.8"/>
			<line class="st1" x1="25.5" y1="-125.8" x2="25.5" y2="0"/>
			<line class="st1" x1="44.9" y1="-125.8" x2="44.9" y2="0"/>
			<line class="st1" x1="121.3" y1="-99.6" x2="0" y2="-99.6"/>
			<line class="st1" x1="121.3" y1="-80.2" x2="0" y2="-80.2"/>
			<line class="st2" x1="0" y1="-62.9" x2="121.3" y2="-62.9"/>
			<line class="st2" x1="0" y1="-45.6" x2="121.3" y2="-45.6"/>
			<rect x="44.9" y="-80.2" class="st3" width="33.7" height="33.7"/>
		</g>
	</g>
</pattern>
<title>human-speedAndGraphic</title>
<g>
	<g id="Calque_2_1_">
		<g id="Calque_2-2">
			<path class="st4" d="M90.9,25L90.9,25c0.3-0.1,0.6,0.1,0.7,0.4l1.7,6.5c0.1,0.3-0.1,0.6-0.4,0.7l0,0c-0.3,0.1-0.6-0.1-0.7-0.4
				l-1.7-6.5C90.4,25.4,90.6,25.1,90.9,25z"/>
			<path class="st5" d="M92.6,32.3l0.6-0.2c0.4-0.1,0.8,0.1,0.9,0.5l1.6,6.2c0.1,0.4-0.1,0.8-0.5,0.9l-0.6,0.2
				c-0.4,0.1-0.8-0.1-0.9-0.5l-1.6-6.2C91.9,32.8,92.2,32.4,92.6,32.3z"/>
			<polyline class="st6" points="0,92.5 31.6,73.7 76.8,97.7 121.8,63.2 150.7,76.9 178.6,54.8 			"/>
			<polygon class="st7" points="51.2,68.3 72.3,67.9 72.3,68.6 			"/>
			<polygon class="st7" points="54.7,65.5 75.9,65.1 75.9,65.8 			"/>
			<polygon class="st7" points="69.3,83.8 90.5,83.4 90.5,84.1 			"/>
			<polygon class="st8" points="45.9,41.2 67.1,40.8 67.1,41.6 			"/>
			<polygon class="st9" points="70.6,34.7 91.8,34.3 91.8,35.1 			"/>
			<polygon class="st4" points="70.6,28.1 91.8,27.7 91.8,28.4 			"/>
			<polygon class="st10" points="19.1,84.5 40.3,84.1 40.3,84.8 			"/>
			<polygon class="st10" points="122.1,77.1 143.2,76.8 143.2,77.5 			"/>
			<polygon class="st10" points="118.2,75.2 139.4,74.8 139.4,75.6 			"/>
			<polygon class="st11" points="48.2,75.9 69.4,75.5 69.4,76.3 			"/>
			<polygon class="st11" points="65.8,81.4 87,81 87,81.7 			"/>
			<polygon class="st12" points="48.2,101.6 69.4,101.3 69.4,102 			"/>
			<polygon class="st13" points="39,93.6 60.2,93.2 60.2,94 			"/>
			<polygon class="st13" points="69.2,86.9 90.4,86.6 90.4,87.3 			"/>
			<polygon class="st8" points="47,48.3 68.1,47.9 68.1,48.6 			"/>
			<polygon class="st14" points="52.6,54.7 73.7,54.3 73.7,55 			"/>
			<polygon class="st15" points="60.2,57.7 81.3,57.3 81.3,58.1 			"/>
			<path class="st16" d="M55.6,86.7c-0.8-0.9-1.8-1.9-1.9-3.1c-1.4,0.2-2.8,0.2-4.1-0.4c-0.2,0.6-0.4,1.1-0.7,1.7
				C47.3,84.2,38,82.5,37,83.3c-1,0.8-0.4,0.9-0.7,1.9c4-0.9,8.9,0.3,12.4,2.4c1.2,0.4,2.4,0.9,3.6,1.2
				C53.4,88.1,54.4,87.3,55.6,86.7z"/>
			
				<linearGradient id="SVGID_1_" gradientUnits="userSpaceOnUse" x1="139.47" y1="-298.1616" x2="229.558" y2="-298.1616" gradientTransform="matrix(0.9982 -5.982905e-02 5.982905e-02 0.9982 -70.4331 392.3376)">
				<stop  offset="0" style="stop-color:#1B364A"/>
				<stop  offset="1" style="stop-color:#16547E"/>
			</linearGradient>
			<path class="st17" d="M100.7,87.3c1.5-4.6,3.7-8.5,9.8-15.2c2.3-2.5,5.4-5.1,11.4-3.1c0.7,0.2,1.4,0.4,2.2,0.3
				c2.5-0.6,8.5-1.1,13.4,5.7c1.3,0.1,2.6,0.5,3.1,0.1c-3.6-5.8-16-12.8-21.7-12.5c-5.5,0.2-12.9,0.8-20.5,8.4
				c-2.9,2.9-5.5,6.5-8.8,8.2c-3.4,1.7-6.3,6-5.4,9.5c0.9,3.5-7.7,8.7-10.1,9.4c-2.4,0.7-3,1.2-5,2.4c-3.6-5.2-7.7-10.1-12.6-14.2
				c-1.7,1.1-3.6,1.9-5.2,3.2c3.2,0.8,7.5,4.7,9.3,7.1c1.8,2.4,5.2,7.5,7.4,8.1c2.2,0.6,2.9,0.2,4.9,0.5c-0.1-0.4,0.2-0.5,0.3-0.8
				c7.7-0.5,13.9-5.6,20.5-9.1c1.5-0.5,2.2-1.7,3.1-3C98.5,90.9,100,89.5,100.7,87.3z"/>
			<g class="st18">
				
					<linearGradient id="SVGID_2_" gradientUnits="userSpaceOnUse" x1="109.6108" y1="16.5615" x2="109.6112" y2="16.5615" gradientTransform="matrix(1 0 0 1 0 56.4008)">
					<stop  offset="0" style="stop-color:#1B364A"/>
					<stop  offset="1" style="stop-color:#16547E"/>
				</linearGradient>
				<polygon class="st19" points="109.6,73 109.6,73 109.6,73 				"/>
				
					<linearGradient id="SVGID_3_" gradientUnits="userSpaceOnUse" x1="112.77" y1="14.3492" x2="139.176" y2="14.3492" gradientTransform="matrix(1 0 0 1 0 56.4008)">
					<stop  offset="0" style="stop-color:#1B364A"/>
					<stop  offset="1" style="stop-color:#16547E"/>
				</linearGradient>
				<path class="st20" d="M132.3,69.3c-10-5.1-15.9-2.3-19.5,0.6c2.1-1.5,4.9-2.4,9.1-1c0.7,0.2,1.4,0.4,2.2,0.3
					c2.5-0.6,8.5-1.1,13.4,5.7c0.6,0.1,1.2,0.2,1.8,0.2C137.8,73.4,136,71.1,132.3,69.3z"/>
			</g>
			<path class="st16" d="M137.2,74.6c-0.3,1.1-0.7,2.1-1,3.2c1.6,0,3.4,0.2,4.6,1.4c0-0.4,0-0.8,0-1.1c3.5,0.8,6.1-1.3,9.5-0.6
				c0-0.2-0.1-0.4-0.1-0.6c0-0.1,0-0.2-0.1-0.3c-0.9-0.5-2-0.5-3.1-0.5c-0.3,0.1-0.5,0.1-0.8,0.2c-1.3,0.6-3.4,0.7-4.2-0.9
				C141.2,73.9,138.7,74.7,137.2,74.6z"/>
			
				<linearGradient id="SVGID_4_" gradientUnits="userSpaceOnUse" x1="86.9887" y1="39.1655" x2="96.606" y2="39.1655" gradientTransform="matrix(1 0 0 1 0 56.4008)">
				<stop  offset="0" style="stop-color:#1B364A"/>
				<stop  offset="1" style="stop-color:#16547E"/>
			</linearGradient>
			<path class="st21" d="M87.2,98.6c2.4-0.6,4.1-2.3,6.2-3.4c1.4-0.6,2.4-1.8,3.1-3.1c-1.2,0.4-4.7,1.1-5.7,0.1
				c-0.8,1.9-2.5,4.5-3.5,6C86.6,99.7,87.2,98.7,87.2,98.6z"/>
			<path class="st16" d="M73.3,104.3l-0.3,0C73.1,104.3,73.2,104.3,73.3,104.3z"/>
			
				<linearGradient id="SVGID_5_" gradientUnits="userSpaceOnUse" x1="62.046" y1="45.2355" x2="72.99" y2="45.2355" gradientTransform="matrix(1 0 0 1 0 56.4008)">
				<stop  offset="0" style="stop-color:#1B364A"/>
				<stop  offset="1" style="stop-color:#16547E"/>
			</linearGradient>
			<path class="st22" d="M66,101.3c-1.3-1.3-2.6-2-4-3c1,1.6,4.2,6,5.9,6.3c1.9,0.3,3,0.3,4.8,0.4c0-0.3,0.2-0.4,0.3-0.7
				C69.5,104.6,68.3,103.6,66,101.3z"/>
			
				<linearGradient id="SVGID_6_" gradientUnits="userSpaceOnUse" x1="83.8108" y1="22.2014" x2="103.2937" y2="22.2014" gradientTransform="matrix(1 0 0 1 0 56.4008)">
				<stop  offset="0" style="stop-color:#1B364A"/>
				<stop  offset="1" style="stop-color:#16547E"/>
			</linearGradient>
			<path class="st23" d="M89.4,79c-3.2,1.6-6.1,5.7-5.5,9.1c2.8,0.3,9.5-0.6,12.3-2.8c-0.5-3.8,7.4-11.9,7.1-15.7
				c-0.8,0.9-1.6,0.3-2.4-0.5c-1,0.6-1.9,1.2-2.7,1.7C94.9,73.2,92.7,77.3,89.4,79z"/>
			<path class="st24" d="M77.9,54.3c0.5,1,0.8,1.8,1,2.8c2.5,0,5,0.3,7.5,0.3c-0.1-1.8-0.2-3.6-0.1-5.4c-0.7-1-1.3-2-2-3.1
				C81.9,50.6,79.9,52.2,77.9,54.3z"/>
			<path class="st25" d="M85.1,50.2c-0.8,1.3-1.6,2.6-2.4,4c1.2,1.2,2.4,2.2,3.7,3.3c-0.1-1.8-0.2-3.6-0.1-5.4
				C85.9,51.5,85.5,50.8,85.1,50.2z"/>
			
				<linearGradient id="SVGID_7_" gradientUnits="userSpaceOnUse" x1="63.144" y1="-9.4278" x2="79.8843" y2="-9.4278" gradientTransform="matrix(1 0 0 1 0 56.4008)">
				<stop  offset="0" style="stop-color:#7B5829"/>
				<stop  offset="1" style="stop-color:#AF7931"/>
			</linearGradient>
			<path class="st26" d="M78.4,42.1c-1.4-1.4-5.2-3.5-7.1-4c-1.9-0.5-3.1-0.3-4.8-0.1c-1.2,1-2.3,2-3.3,3.2c0.3,0.2,0.8,0.1,1,0.5
				c1.4,1.5,4,4.8,3.4,6.8s0.5,1.9,1,3c0.6,1.1,1.7,4.1,3,4.5c1.3,0.4,3.5-2,5.9-0.4S81.1,46.6,78.4,42.1z"/>
			
				<linearGradient id="SVGID_8_" gradientUnits="userSpaceOnUse" x1="67.4016" y1="-3.913" x2="78.084" y2="-3.913" gradientTransform="matrix(1 0 0 1 0 56.4008)">
				<stop  offset="0" style="stop-color:#1B364A"/>
				<stop  offset="1" style="stop-color:#16547E"/>
			</linearGradient>
			<path class="st27" d="M68.5,51.6c0.6,0.7,1.9,4.2,3,4.4c1,0.2,4.5-1.5,5.5-0.6c0.4,0.4,1-4.6,1.1-4.9c-0.4-0.4-0.8-0.6-1.3-0.9
				c-3.3,5.5-6.1,3.7-9.4-0.8C67.3,49.7,68,50.9,68.5,51.6z"/>
			<path class="st28" d="M72.1,41.9c-0.8-1.4-2.6-2.3-4-2.7c1.6-0.4,4.9,0.5,5.3,2.1C73.7,42.8,72.6,41.9,72.1,41.9z"/>
			<path class="st28" d="M72.1,39.4c0.9,0.4,2.2,1.2,2.3,2.2c0.1,1,0.5-0.8,0.5-0.9C74,40,73.1,39.6,72.1,39.4z"/>
			<path class="st28" d="M65.4,41.4c0.8,0.7,2.8,1.5,3,2.6s1.4,3.6,2.1,4c0.8,0.4,0-2.4-0.1-3.3c-0.2-0.8-2-2.5-2.7-2.7
				C66.9,41.9,65.1,41.2,65.4,41.4z"/>
			<path class="st24" d="M73.6,50.4c-1-0.8-2-1.6-3-2.2c-0.3-0.9-0.6-1.7-1.1-2.5c0.6-1.5,1.3-3,1.8-4.6c1.2-0.2,2.3-0.4,3.6-0.4
				c2.1,0.6,5.7,2.1,6.8,3.7s1,2.3,1.7,3.8c-1.3,1.3-2.5,2.6-3.7,3.9C77.8,51.1,75.7,50.8,73.6,50.4z"/>
			<path class="st25" d="M81.9,48.1c-0.6-0.7-2-2.2-3.1-2.8c-0.8,0-1.6,0.1-2.4,0.1c-1.7-1.2-3.5-2.2-5.5-2.7c0.2-0.5,0.4-1,0.6-1.5
				c1.1-0.1,2.1-0.3,3.3-0.3c2,0.6,5.5,2,6.6,3.6c1.1,1.5,0.9,2.2,1.7,3.6c-0.3,0.2-0.6,0.5-0.8,0.8C82,48.4,82.5,48.9,81.9,48.1z"
				/>
			<path class="st29" d="M74.2,50.8c-0.4,1.2-1.1,1.9-2.4,1.3c-1.3-0.6-0.8-2,0-2.9C72.6,49.7,73.5,50.2,74.2,50.8z"/>
			<path class="st30" d="M71.9,51c0.1,0,0.3-0.1,0.4-0.1c0.1-0.1,0.2-0.1,0.3-0.3c0.1-0.1,0.2-0.2,0.2-0.3c0.1-0.1,0.1-0.3,0.1-0.4
				l0.3,0.1c-0.1,0.1-0.1,0.3-0.2,0.4s-0.2,0.3-0.3,0.3s-0.3,0.2-0.4,0.2C72.2,51,72,51,71.9,51z"/>
			
				<linearGradient id="SVGID_9_" gradientUnits="userSpaceOnUse" x1="73.4628" y1="-6.8655" x2="87.5703" y2="-6.8655" gradientTransform="matrix(1 0 0 1 0 56.4008)">
				<stop  offset="0" style="stop-color:#7B5829"/>
				<stop  offset="1" style="stop-color:#AF7931"/>
			</linearGradient>
			<path class="st31" d="M86.4,47.9c-1.9-2-4.1-5-7.7-5.6c1,0.4,2.4,1.2,3.1,2.3s1.1,2.4,1.6,3.6c-1.3,1.3-2.5,2.6-3.7,4
				c-1.9-1-4-1.3-6-1.7c-0.3,0.5-0.3,0.9,0.2,1.2c1.8,1.1,2.6,3.3,3.2,5.2c2.1-0.8,4.3-1.1,6.6-1.3c0.8-1.5,2.4-2.7,3.1-4.1
				C87.5,49.9,88.3,49.9,86.4,47.9z"/>
			<path class="st30" d="M73.4,47.7c0.1-0.2,0.1-0.4,0.3-0.6c0.1-0.2,0.3-0.3,0.5-0.5c0.2-0.1,0.4-0.2,0.6-0.3
				c0.2-0.1,0.4-0.1,0.6-0.1c-0.2,0.1-0.4,0.2-0.6,0.2c-0.2,0.1-0.4,0.2-0.5,0.3c-0.2,0.1-0.3,0.2-0.5,0.4
				C73.7,47.4,73.6,47.6,73.4,47.7z"/>
			<path class="st30" d="M76.8,45.3c-0.1-0.1-0.1-0.2-0.2-0.3c0-0.1-0.1-0.2-0.1-0.3c0-0.1,0.1-0.2,0.1-0.3c0.1-0.1,0.2-0.2,0.3-0.2
				c0.2-0.1,0.4-0.2,0.6-0.3c0.2-0.1,0.4-0.1,0.6-0.1C78,43.9,77.8,44,77.6,44s-0.4,0.2-0.6,0.3c-0.2,0.1-0.3,0.3-0.4,0.4
				c0,0.1,0,0.2,0,0.3C76.7,45.1,76.8,45.2,76.8,45.3z"/>
			<path class="st30" d="M79.8,49.2c0.2-0.1,0.3-0.3,0.4-0.5c0.1-0.2,0.2-0.4,0.2-0.5c0.1-0.2,0.2-0.4,0.3-0.6
				c0.1-0.1,0.1-0.2,0.2-0.3c0.1-0.1,0.2-0.1,0.3-0.2l-0.1,0.1c0-0.1,0.1-0.1,0.1-0.2c0.1,0,0.1-0.1,0.2-0.1c0.1,0,0.1,0,0.2,0
				s0.1,0,0.2,0c0.1,0,0.1,0,0.2,0c0.1,0,0.1,0,0.1,0c0.1,0,0.1,0,0.1,0c0,0,0.1-0.1,0.1-0.1c0,0.1,0,0.1-0.1,0.1
				c0,0-0.1,0.1-0.2,0.1c-0.1,0-0.2,0-0.3,0c-0.1,0-0.2,0-0.3,0c0,0-0.1,0-0.1,0c0,0,0,0.1-0.1,0.1l0,0l-0.1,0
				c-0.2,0.1-0.3,0.2-0.4,0.4c-0.1,0.2-0.2,0.3-0.3,0.5c-0.1,0.2-0.2,0.4-0.3,0.5c-0.1,0.1-0.1,0.2-0.2,0.2
				C80,49.1,79.9,49.2,79.8,49.2z"/>
			<path class="st25" d="M79,46.3c0.7,0.5,1.1,0.4,1.7,1c-0.4,0.3-0.6,1.3-1,1.5C79.5,48,79.2,47.2,79,46.3z"/>
			
				<linearGradient id="SVGID_10_" gradientUnits="userSpaceOnUse" x1="78.6305" y1="-7.5405" x2="87.5684" y2="-7.5405" gradientTransform="matrix(1 0 0 1 0 56.4008)">
				<stop  offset="0" style="stop-color:#7B5829"/>
				<stop  offset="1" style="stop-color:#AF7931"/>
			</linearGradient>
			<path class="st32" d="M86.8,51.3c0.7-1.5,1.4-1.5-0.5-3.5c-1.9-2-4.1-5-7.7-5.6c1,0.4,2.4,1.2,3.1,2.3s1.1,2.4,1.6,3.6
				c-0.5,0.5-0.9,0.9-1.4,1.4c0.6,0.8,1.3,1.5,1.9,2.3c-0.1,1.2-0.2,2.4-0.2,3.7C84.5,54,86.1,52.8,86.8,51.3z"/>
			<path class="st25" d="M69.5,38.4l-1.4,0.1c-0.2,0-0.4,0-0.7,0.1c-0.2,0-0.4,0.1-0.7,0.1h0c-0.3,0.2-0.6,0.4-0.9,0.6
				c-0.3,0.2-0.6,0.4-0.9,0.6s-0.6,0.4-0.9,0.7c-0.3,0.2-0.6,0.5-0.9,0.7l-0.1-0.1c0.6-0.3,1.2-0.5,1.7-0.8c0.3-0.1,0.6-0.3,0.9-0.4
				c0.3-0.1,0.6-0.2,0.9-0.3l0,0l0,0c0.3,0,0.5,0,0.8,0.1s0.5,0.1,0.8,0.2c0.3,0.1,0.5,0.2,0.7,0.4c0.2,0.1,0.4,0.3,0.6,0.5
				c-0.2-0.1-0.5-0.3-0.7-0.4c-0.2-0.1-0.5-0.2-0.7-0.3c-0.3-0.1-0.5-0.2-0.8-0.2c-0.3-0.1-0.5-0.1-0.8,0h0
				c-0.3,0.1-0.6,0.2-0.9,0.4s-0.6,0.3-0.9,0.4c-0.6,0.3-1.2,0.5-1.7,0.8l-0.5,0.3l0.5-0.4c0.3-0.2,0.6-0.5,0.9-0.7
				c0.3-0.2,0.6-0.5,0.9-0.7c0.3-0.2,0.6-0.4,0.9-0.6c0.3-0.2,0.6-0.4,1-0.6h0h0c0.4,0,0.9-0.1,1.4-0.1l0.7,0
				C69,38.4,69.2,38.4,69.5,38.4z"/>
			<path class="st25" d="M70.3,51.3L70,51.1c-0.1-0.1-0.2-0.2-0.3-0.2l-0.1-0.1l-0.1-0.1l0,0l0,0l-0.1-0.1l-0.1-0.1l-0.1-0.1
				c-0.3-0.4-0.6-0.8-0.8-1.3c-0.2-0.5-0.3-1-0.3-1.5c0-0.1,0-0.1,0-0.2v-0.2V47c0-0.1,0-0.1,0-0.2c0-0.3,0-0.5,0-0.8
				c0-0.3-0.1-0.5-0.1-0.7s-0.2-0.5-0.3-0.7c-0.3-0.4-0.6-0.8-0.9-1.2c-0.4-0.3-0.8-0.7-1.2-1c-0.2-0.1-0.4-0.3-0.6-0.4l-0.3-0.2
				l-0.3-0.2l0.3,0.2l0.3,0.2c0.2,0.1,0.4,0.3,0.6,0.4c0.4,0.3,0.8,0.6,1.2,0.9c0.4,0.3,0.7,0.7,1,1.2c0.3,0.5,0.4,1,0.5,1.5
				c0,0.3,0,0.5,0,0.8c0,0.1,0,0.1,0,0.2v0.2v0.2v0.2c0,0.5,0.1,1,0.3,1.5c0,0,0,0.1,0,0.1l0,0.1l0,0.1c0,0,0,0.1,0,0.1l0.1,0.2
				c0,0,0,0.1,0,0.1l0.1,0.1l0.1,0.2c0,0.1,0.1,0.1,0.1,0.1l0.1,0.1c0,0,0,0.1,0.1,0.1l0.1,0.1l0.1,0.1l0.1,0.1l0.1,0.1l0,0l0,0
				l0.1,0.1l0.1,0.1c0.1,0.1,0.2,0.2,0.3,0.3L70.3,51.3z"/>
			<path class="st33" d="M105.8,41.8c-1.8-3.1-5.3-5.4-8.9-5.9c-0.6-0.6-1.2-1.3-1.8-1.9c-0.3-0.6-0.3-1-1.2-0.9
				c-0.9,0.1-1,0.4-2.4,0.3c-1.3-0.1-1.7,1.6-0.4,2.5c0.4,0.7,0.6,1.4,0.9,2.1s1.1,0.9,1.9,0.7c0.7,0.3,1.5,0.1,2.2-0.2
				c2.6,1,5.3,2.8,7,5C104.1,43.2,105,42.5,105.8,41.8z"/>
			<path class="st34" d="M103.2,43.6c-0.5-0.5-1-1-1.6-1.5c-0.6-0.5-1.1-0.9-1.7-1.3c-0.6-0.4-1.2-0.8-1.8-1.2
				c-0.6-0.4-1.3-0.7-1.9-1c0.7,0.2,1.4,0.5,2,0.8c0.6,0.3,1.3,0.7,1.9,1.1c0.6,0.4,1.2,0.9,1.7,1.4C102.3,42.4,102.8,43,103.2,43.6
				z"/>
			<path class="st34" d="M103.1,43.6c-0.3-0.4-0.6-0.7-0.9-1c-0.3-0.3-0.6-0.6-1-0.9c-0.3-0.3-0.7-0.5-1.1-0.8
				c-0.4-0.3-0.7-0.5-1.1-0.7c-0.4-0.2-0.8-0.5-1.1-0.7c-0.2-0.1-0.4-0.2-0.6-0.3c-0.1-0.1-0.2-0.1-0.3-0.1
				c-0.1-0.1-0.2-0.1-0.3-0.1c-0.2-0.1-0.4-0.2-0.6-0.3s-0.4-0.2-0.6-0.3l-0.3-0.1c0,0-0.1,0-0.1,0l-0.1-0.1l-0.1-0.1
				c-0.2-0.1-0.4-0.2-0.6-0.3c0.2,0.1,0.4,0.2,0.6,0.3c0.1,0,0.1,0.1,0.1,0.1l0.1,0c0,0,0.1,0,0.1,0l0.3,0.1
				c0.2,0.1,0.4,0.1,0.6,0.2c0.2,0.1,0.4,0.2,0.6,0.2c0.4,0.2,0.8,0.4,1.2,0.6c0.4,0.2,0.8,0.4,1.2,0.7c0.4,0.2,0.8,0.5,1.1,0.7
				c0.4,0.3,0.7,0.5,1,0.8c0.2,0.1,0.3,0.3,0.5,0.5c0.1,0.1,0.2,0.2,0.2,0.2l0.1,0.1c0,0,0.1,0.1,0.1,0.1
				C102.6,42.8,102.9,43.2,103.1,43.6z"/>
			<g class="st35">
				<path class="st34" d="M91.5,35.6c0.1,0.3,0.3,0.6,0.4,0.9c0.1,0.3,0.3,0.6,0.4,0.8c0.2,0.3,0.3,0.5,0.6,0.7
					c0.2,0.2,0.5,0.4,0.8,0.5c-0.2,0-0.3,0-0.5-0.1c-0.2-0.1-0.3-0.2-0.4-0.3c-0.3-0.2-0.5-0.5-0.6-0.8c-0.2-0.3-0.3-0.6-0.4-0.9
					C91.6,36.2,91.5,35.9,91.5,35.6z"/>
			</g>
			<g class="st35">
				<path class="st34" d="M103.1,43.8c-0.3-0.3-0.5-0.6-0.8-0.9c-0.3-0.3-0.5-0.6-0.8-0.9c-0.3-0.3-0.6-0.6-0.8-0.8
					c-0.3-0.3-0.6-0.5-0.9-0.8c0.4,0.2,0.7,0.4,1,0.6c0.3,0.3,0.6,0.5,0.9,0.8c0.3,0.3,0.5,0.6,0.8,1
					C102.7,43.1,102.9,43.4,103.1,43.8z"/>
			</g>
			<path class="st36" d="M96.1,38.6c1.9-0.2,4.2,0.1,5.7,1.4c1.6,1.3-0.2,1.5-1.5,1C99.1,40.4,97.5,39.3,96.1,38.6z"/>
			<path class="st37" d="M87,57.6c4.7,5.6,8,12.4,12.4,17.5c0.7-1.1,1.5-2.1,2.2-3.2c-2.3-3.5-4-10.1-6-12.6
				c4.9-1.9,7.8-6.8,14.3-7.8c0.1-0.7,0.2-1.9,0.8-2.4c-1.8-3-3.8-5.9-5.8-8.7c-0.8,0.4-2.6,1.3-2.8,2.2c1.6,1.4,2.9,3.8,4,5.6
				c-3.9,1.1-11.7,5.7-14.7,5.5c-0.1-0.1-0.2-0.2-0.3-0.3c-1.4-0.2-2.7-0.6-4-1.2C87,54,87,55.8,87,57.6z"/>
			
				<pattern  id="SVGID_13_" xlink:href="#SVGID_11_" patternTransform="matrix(3.690000e-02 0 0 3.690000e-02 -7957.6055 -6446.1074)">
			</pattern>
			<path class="st38" d="M87,57.6c4.7,5.6,8,12.4,12.4,17.5c0.7-1.1,1.5-2.1,2.2-3.2c-2.3-3.5-4-10.1-6-12.6
				c4.9-1.9,7.8-6.8,14.3-7.8c0.1-0.7,0.2-1.9,0.8-2.4c-1.8-3-3.8-5.9-5.8-8.7c-0.8,0.4-2.6,1.3-2.8,2.2c1.6,1.4,2.9,3.8,4,5.6
				c-3.9,1.1-11.7,5.7-14.7,5.5c-0.1-0.1-0.2-0.2-0.3-0.3c-1.4-0.2-2.7-0.6-4-1.2C87,54,87,55.8,87,57.6z"/>
			<path class="st37" d="M87,57.6c-3.2,0.6-5.7,0.6-9.2,1.4c-2.6,6-5.6,9.9-10.2,12.4c-4.6,2.4-1.7,1-2.5,2.7
				c-0.8,1.7,0.7,2.5,0.3,4c3.1,0.6,5.8,1.1,8.9,1.3c0.9-1.5,1.6-3.2,2.4-4.8c-1.9-0.1-3.8,0.2-5.6,0.1c4.8-1.4,8.6-2.3,10.1-7.9
				c1.7,2.3,2.6,3.5,2.6,6.7c0.1,3.2,1.4,8.3-0.3,11.6c0.3,0.3,0.6,0.3,0.9,0.5c3.8-1.2,7.7-2.3,11.5-3.5c0.9-2.6,2-5.1,3-7.6
				C94.7,68.8,91.7,63.3,87,57.6z"/>
			
				<pattern  id="SVGID_14_" xlink:href="#SVGID_12_" patternTransform="matrix(3.690000e-02 0 0 3.690000e-02 -7957.6055 -6446.1074)">
			</pattern>
			<path class="st39" d="M87,57.6c-3.2,0.6-5.7,0.6-9.2,1.4c-2.6,6-5.6,9.9-10.2,12.4c-4.6,2.4-1.7,1-2.5,2.7
				c-0.8,1.7,0.7,2.5,0.3,4c3.1,0.6,5.8,1.1,8.9,1.3c0.9-1.5,1.6-3.2,2.4-4.8c-1.9-0.1-3.8,0.2-5.6,0.1c4.8-1.4,8.6-2.3,10.1-7.9
				c1.7,2.3,2.6,3.5,2.6,6.7c0.1,3.2,1.4,8.3-0.3,11.6c0.3,0.3,0.6,0.3,0.9,0.5c3.8-1.2,7.7-2.3,11.5-3.5c0.9-2.6,2-5.1,3-7.6
				C94.7,68.8,91.7,63.3,87,57.6z"/>
			<path class="st40" d="M91.1,53.3c-1.3-0.1-2.7-0.6-4-1.1C87,54,87,55.8,87,57.6c4.7,5.6,8,12.4,12.4,17.5
				c0.7-1.1,1.6-2.1,2.1-3.3c-1.9-3.3-4.4-10.3-5.8-12.5c-1.3-2.2-3.1-4-4.3-5.5C90.4,52.4,91.9,54.3,91.1,53.3z"/>
			<g>
				<path class="st41" d="M99.5,75C99.3,75.3,99.5,75.1,99.5,75c0.4-0.5,0.9-1.2,1.3-1.9C100.5,73.6,99.7,74.7,99.5,75z"/>
				<path class="st41" d="M87.1,52.2L87.1,52.2C87,53,87,53.9,87,54.7C87,53.8,87,53,87.1,52.2z"/>
				<path class="st41" d="M102.1,42.6c1.5,1.4,2.9,3.8,4,5.6c-3.8,1.3-11.8,5.5-14.6,5.7c-0.3-0.4-0.2-0.2-0.4-0.5l0,0
					c0.7,0.9-0.5-0.8,0.4,0.5c0.9,1.3,3.5,3.8,4.1,5.3c0.3,0.8,0,0,0,0c5-1.5,7.8-6.8,14.3-7.6c0.1-0.8,0.2-1.9,0.8-2.4
					c-1.8-3-3.8-5.9-5.8-8.7C104,40.7,102.3,41.6,102.1,42.6z"/>
			</g>
			<path class="st40" d="M108,48.3c-0.7-0.9-4.8-6.6-5.6-6.4c-0.2,0.2-0.3,0.4-0.3,0.7c1.6,1.4,2.9,3.8,4,5.6
				C106.7,48.1,107.4,48,108,48.3z"/>
			<path class="st42" d="M100.1,41.4c1-0.8,2.1-1.7,3.1-2.5c0.8-0.6,1.3-0.4,1.9,0.2c0.4,0.4,0.9,1.1,1.3,1.6
				c-1.4,0.6-2.9,1.3-4.3,1.9C101.4,42.2,100.8,41.8,100.1,41.4z"/>
			<path class="st40" d="M83.2,70.2c0.6,1.5,1.9,4.9,3.3,5.5c1.3,0.7-1,0.6-1.3,0.7c0.5,0.3,1,0.6,1.5,0.6c-0.4,0.2-0.9,0.3-1.3,0.4
				c0.1,1.2,0.3,2.9-0.1,4C85.3,80,83.8,70.6,83.2,70.2z"/>
			<path class="st40" d="M86.3,78.1c0.2,1.7,0.3,4.7-0.9,6.1c0.1,0.1,0.3,0.2,0.4,0.3c1.8-0.5,3.6-1.2,5.4-1.7
				c-0.5-0.2-3.5,1-3.7,0.1C87.3,82.1,87.2,78.8,86.3,78.1z"/>
			<path class="st43" d="M95.3,81.5l-3.7,1.1l-1.7-0.8C91.1,81.5,94.2,81,95.3,81.5z"/>
			<path class="st40" d="M96.4,78.7c0.6-1.4,1.2-2.8,1.8-4.2c-1.2-1.6-2.2-3.3-3.2-5C96,72.1,97.1,75.9,96.4,78.7z"/>
			<path class="st40" d="M68.1,74.2c0.8,0.2,1.7,0.4,2.5,0.5c2.8-0.9,5.1-1.3,7.5-3.1C75.8,73,70.7,74.6,68.1,74.2z"/>
			<path class="st44" d="M78,59c0-0.6-0.1-1.2-0.1-1.8c2.8-0.3,5.7,0.3,8.5,0.3c-0.1-1.8-0.2-3.6-0.1-5.4c0.3-0.1,0.7-0.2,1-0.3
				c-0.1,0.2-0.2,0.3-0.3,0.5C86.9,54,87,55.9,87,57.7C84,58.1,81,58.4,78,59z"/>
			<path class="st40" d="M65.3,74.4c1.2,2.9,5.4,3.7,8.1,4c-0.1,0.3-0.2,0.5-0.4,0.8c-2.4-0.3-4.8-0.6-7.2-1.1
				C65.6,76.8,65.5,75.6,65.3,74.4z"/>
			<path class="st40" d="M96.9,70.5c0.7,1.2,1.6,2.4,2.5,3.5c0.6-0.7,1.1-1.5,1.7-2.2C99.5,72.2,97.9,71.6,96.9,70.5z"/>
			<path class="st40" d="M94.2,57.6c0.4,0.6,0.7,1.3,1,2s0.7,1.6,0.8,2.3c-0.4-0.7-0.8-1-1.3-1.6C94.7,59.4,94.4,58.5,94.2,57.6z"/>
			<polygon class="st24" points="74.7,78.8 81.6,78.9 82,80 86.7,79.8 86.7,74.8 83.8,75.2 85.8,74.9 85.6,73.8 82,73.8 81.8,75.4 
				76.1,75.7 			"/>
			<polygon class="st36" points="85.5,74.9 84.6,79.8 86.7,79.8 86.7,74.8 			"/>
			<polygon class="st25" points="81.9,78.7 80.5,77.8 75.5,77.4 75,78.6 			"/>
			<path class="st45" d="M84.1,83.5l2.5-3.7l-2.3,0.1C84.4,79.9,84.7,82.4,84.1,83.5z"/>
			<path class="st46" d="M83.9,88.1c0,0,3.4,6.2,12.7,4"/>
			<path class="st47" d="M116.9,83.1h9.8c4.2,0,7.5,3.4,7.5,7.5l0,0v44.9l0,0h-24.9l0,0V90.7C109.4,86.5,112.8,83.1,116.9,83.1
				L116.9,83.1z"/>
			<path class="st48" d="M51.8,136H37.9l0,0v-22.4c0-3.9,3.1-7,7-7l0,0c3.9,0,7,3.1,7,7l0,0L51.8,136L51.8,136z"/>
			<path class="st49" d="M40.6,135.7h-18l0,0v-30.5c0-4.2,3.4-7.5,7.5-7.5l0,0h2.9c4.2,0,7.5,3.4,7.5,7.5l0,0V135.7L40.6,135.7z"/>
			<path class="st50" d="M29.7,136H15.8l0,0v-22.4c0-3.9,3.1-7,7-7l0,0c3.9,0,7,3.1,7,7l0,0L29.7,136L29.7,136z"/>
			<line class="st51" x1="4.5" y1="136" x2="180" y2="136"/>
			<path class="st50" d="M35.6,141.5c0,0,1.4,1.9,7,1.9s7-1.9,7-1.9v-14.3c0-3.9-3.1-7-7-7l0,0c-3.9,0-7,3.1-7,7V141.5z"/>
			<path class="st48" d="M143.7,141.5c0,0-4.3,1.9-9.6,1.9s-9.6-1.9-9.6-1.9v-33c0-4.2,3.4-7.5,7.5-7.5h4.1c4.2,0,7.5,3.4,7.5,7.5
				V141.5z"/>
			<path class="st25" d="M79.8,49.2c0.7-0.3,0.7-1.6,1.4-1.9c0.1-0.5,1,0.1,1.1-0.3c0,0,0.2,0.6-0.6,1.4
				C80.8,49.1,79.8,49.2,79.8,49.2z"/>
			<path class="st30" d="M80.9,48.5c0-0.1,0.1-0.2,0.1-0.3c0-0.1,0.1-0.2,0.1-0.2c0,0,0.1-0.1,0.1-0.1c0,0,0,0,0,0l0,0h0h0
				c0,0,0,0,0,0c0,0,0,0,0,0v0v0c0,0,0,0.1,0,0.1s0,0.1,0,0.1c0,0,0-0.1,0-0.1s0-0.1,0-0.1c0,0,0,0,0,0c0,0,0,0,0,0l0,0c0,0,0,0,0,0
				l0,0l0,0l0,0l0,0c0,0-0.1,0.1-0.1,0.1c-0.1,0.1-0.1,0.1-0.2,0.2C81,48.3,80.9,48.4,80.9,48.5z"/>
			<path class="st30" d="M82.2,47.4c-0.1,0-0.2,0.1-0.3,0.1c-0.1,0-0.2,0.1-0.3,0.1c0,0-0.1,0-0.1,0.1c0,0,0,0,0,0l0,0l0,0l0,0v0
				l0,0c0,0,0,0,0,0h0c0,0,0.1,0,0.1,0c0,0,0.1,0,0.1,0.1c0,0-0.1,0-0.1,0s-0.1,0-0.1,0h0h0c0,0,0,0,0,0c0,0,0,0,0,0v0l0,0l0,0
				c0,0,0,0,0,0c0,0,0.1,0,0.1-0.1c0.1,0,0.2-0.1,0.3-0.1C82,47.4,82.1,47.4,82.2,47.4z"/>
		</g>
	</g>
</g>
</svg>
