<?xml version="1.0" encoding="utf-8"?>
<!-- Generator: Adobe Illustrator 22.0.1, SVG Export Plug-In . SVG Version: 6.00 Build 0)  -->
<svg version="1.1" id="Calque_1" xmlns="http://www.w3.org/2000/svg" xmlns:xlink="http://www.w3.org/1999/xlink" x="0px" y="0px"
	 viewBox="0 0 180 180" style="enable-background:new 0 0 180 180;" xml:space="preserve">
<style type="text/css">
	.st0{fill:none;}
	.st1{fill:none;stroke:#6199F2;stroke-width:4;stroke-miterlimit:10;}
	.st2{fill:none;stroke:#A2C0FC;stroke-width:4;stroke-miterlimit:10;}
	.st3{opacity:0.31;fill:#B1CEFC;enable-background:new    ;}
	.st4{opacity:0.27;fill:#B1CEFC;enable-background:new    ;}
	.st5{fill:#FFFFFF;}
	.st6{fill:none;stroke:url(#SVGID_1_);stroke-width:3.7152;stroke-miterlimit:10;}
	.st7{clip-path:url(#SVGID_3_);}
	.st8{fill:url(#SVGID_4_);stroke:#12233F;stroke-width:0.2752;stroke-miterlimit:10;}
	.st9{fill:#CADEFF;stroke:#6199F2;stroke-width:0.2752;stroke-miterlimit:10;}
	.st10{fill:url(#SVGID_6_);}
	.st11{opacity:0.75;fill:#B1CEFC;enable-background:new    ;}
	.st12{fill:#F7EBD2;stroke:#A8844A;stroke-width:0.2752;stroke-miterlimit:10;}
	.st13{opacity:0.27;fill:#A8844A;enable-background:new    ;}
	.st14{fill:url(#SVGID_7_);}
	.st15{opacity:0.44;fill:#D3963D;enable-background:new    ;}
	.st16{fill:url(#SVGID_8_);}
	.st17{fill:url(#SVGID_9_);}
	.st18{fill:#F9DDAA;stroke:#A8844A;stroke-width:0.344;stroke-miterlimit:10;}
	.st19{fill:#AD761D;}
	.st20{fill:#F9DDAA;}
	.st21{fill:none;stroke:#AD761D;stroke-width:0.4128;stroke-linecap:round;stroke-miterlimit:10;}
	.st22{fill:#F7EBD2;stroke:#B58D4D;stroke-width:0.2752;stroke-miterlimit:10;}
	.st23{fill:#A2C0FC;stroke:#6199F2;stroke-width:0.2752;stroke-miterlimit:10;}
	.st24{opacity:0.32;fill:#B1CEFC;enable-background:new    ;}
	.st25{fill:none;stroke:#6199F2;stroke-width:0.2752;stroke-miterlimit:10;}
	.st26{fill:none;stroke:url(#SVGID_10_);stroke-width:3.7152;stroke-miterlimit:10;}
	.st27{fill:none;stroke:url(#SVGID_11_);stroke-width:4.8161;stroke-linecap:round;stroke-miterlimit:10;}
</style>
<pattern  x="-310" y="573.5" width="121.3" height="125.8" patternUnits="userSpaceOnUse" id="SVGID_5_" viewBox="0 -125.8 121.3 125.8" style="overflow:visible;">
	<g>
		<rect y="-125.8" class="st0" width="121.3" height="125.8"/>
		<g>
			<rect y="-125.8" class="st0" width="121.3" height="125.8"/>
			<rect y="-125.8" class="st0" width="121.3" height="125.8"/>
			<line class="st1" x1="25.5" y1="-125.8" x2="25.5" y2="0"/>
			<line class="st1" x1="44.9" y1="-125.8" x2="44.9" y2="0"/>
			<line class="st1" x1="121.3" y1="-99.6" x2="0" y2="-99.6"/>
			<line class="st1" x1="121.3" y1="-80.2" x2="0" y2="-80.2"/>
			<line class="st2" x1="0" y1="-62.9" x2="121.3" y2="-62.9"/>
			<line class="st2" x1="0" y1="-45.6" x2="121.3" y2="-45.6"/>
			<rect x="44.9" y="-80.2" class="st3" width="33.7" height="33.7"/>
		</g>
	</g>
</pattern>
<title>hunman-Think</title>
<g>
	<g id="Calque_2_1_">
		<g id="Calque_2-2">
			<circle class="st4" cx="90" cy="104.6" r="70.7"/>
			<circle class="st5" cx="108.3" cy="82.7" r="34.6"/>
			<circle class="st5" cx="51.8" cy="73.9" r="16.1"/>
			
				<linearGradient id="SVGID_1_" gradientUnits="userSpaceOnUse" x1="217.82" y1="-290.8066" x2="313.3465" y2="-290.8066" gradientTransform="matrix(1 0 0 1 -179.94 327.7023)">
				<stop  offset="0" style="stop-color:#1B364A"/>
				<stop  offset="1" style="stop-color:#16547E"/>
			</linearGradient>
			<path class="st6" d="M39.1,46.9C52.6,34.7,70.4,27.3,90,27.3c15.7,0,30.3,4.8,42.4,12.9"/>
			<g>
				<g>
					<defs>
						<circle id="SVGID_2_" cx="90" cy="90" r="90"/>
					</defs>
					<clipPath id="SVGID_3_">
						<use xlink:href="#SVGID_2_"  style="overflow:visible;"/>
					</clipPath>
					<g class="st7">
						
							<linearGradient id="SVGID_4_" gradientUnits="userSpaceOnUse" x1="241.545" y1="-147.688" x2="298.5825" y2="-147.688" gradientTransform="matrix(1 0 0 1 -179.94 327.7023)">
							<stop  offset="0" style="stop-color:#1B364A"/>
							<stop  offset="1" style="stop-color:#16547E"/>
						</linearGradient>
						<path class="st8" d="M61.6,158.4c0,0,6.1,37,6,44.2h24.1l-1.1-22.1l4.1,22.1h24l-2.9-38.2C115.7,164.4,67,154.1,61.6,158.4z"
							/>
						<path class="st9" d="M60.4,66.8L111.3,50c3.3-1.1,6.9-0.4,9.5,1.8c1,0.9,1.8,1.9,2,3.1c0.8,4.1,7.4,33.8,3.3,47
							s-7,21.5-7.9,21.1c-0.8-0.4-2.5,0-2.5,0v41.3c0,0-22.5-3.5-29.1-3.3c-6.6,0.2-24.1-1.9-25-2.7c2.3-3.3,6.2-15.3,6-23.1
							c-5.6,2.3-9.3,4.1-10.9,2.9c-1.6-1.2-6.8-3.3-6-21.7c0.6-13.4,2.7-32.8,3.7-42.3C54.8,70.8,57.1,67.9,60.4,66.8z"/>
						
							<pattern  id="SVGID_6_" xlink:href="#SVGID_5_" patternTransform="matrix(6.880499e-02 0 0 6.880499e-02 -8128.2734 -5786.1353)">
						</pattern>
						<path class="st10" d="M60.4,66.8L111.3,50c3.3-1.1,6.9-0.4,9.5,1.8c1,0.9,1.8,1.9,2,3.1c0.8,4.1,7.4,33.8,3.3,47
							s-7,21.5-7.9,21.1c-0.8-0.4-2.5,0-2.5,0v41.3c0,0-22.5-3.5-29.1-3.3c-6.6,0.2-24.1-1.9-25-2.7c2.3-3.3,6.2-15.3,6-23.1
							c-5.6,2.3-9.3,4.1-10.9,2.9c-1.6-1.2-6.8-3.3-6-21.7c0.6-13.4,2.7-32.8,3.7-42.3C54.8,70.8,57.1,67.9,60.4,66.8z"/>
						<path class="st11" d="M106.2,117.7c0,0,7.8,5.5,9.5,5.3v41.3l-15.9-2.2c0,0,3.9-2.4,7.9-1.8c4,0.5,5.7,0.8,5.7,0.8l1.4-36.8
							c0,0-9.6-0.5-11.3-2l1.4-1.4c0,0-3,1.1-3.3,0.4c1-0.9,1.9-2.2,1.9-2.2l-3.7-0.9c0,0,1.4-1.7,0.4-2.5c-1-0.9-3.2-3-3.2-3
							l5.3-4.2L106.2,117.7z"/>
						<path class="st11" d="M89.4,102.8c0,0-6.5-28-6.1-32.6c-5.3-3.1-7.6-5.2-7.6-5.2L89,67.3l7.4,34.5L89.4,102.8z"/>
						<path class="st11" d="M67.9,137.6c0,0,34.5-19.1,47.8-3.3v-11.3l-9.5-5.3l-2.2-12.1l-29.1,16.6l4.2,6.5l-11.5,6.6L67.9,137.6z
							"/>
						<path class="st12" d="M79.4,107L97,99.9l4.7,9.9c0,0-13.1,8-13.7,10.9C87.5,123.5,79.4,107,79.4,107z"/>
						<path class="st13" d="M97,99.9l-5.8,2.4l1.2,7.9l-9.4,3.8c2.2,4.1,4.7,8.3,5,6.8c0.5-2.9,13.7-10.9,13.7-10.9L97,99.9z"/>
						<path class="st11" d="M99.5,75.9c0,0,6.1,8.7,8,7.4c1.9-1.3,3.4-3.1,3.4-3.1s2.8,12,1.1,16.1s-8-4.3-8-4.3L99.5,75.9z"/>
						
							<linearGradient id="SVGID_7_" gradientUnits="userSpaceOnUse" x1="389.5276" y1="-450.6996" x2="438.9431" y2="-450.6996" gradientTransform="matrix(0.968 -0.2509 0.2509 0.968 -202.126 566.8229)">
							<stop  offset="0" style="stop-color:#6F4E29"/>
							<stop  offset="0.18" style="stop-color:#735129"/>
							<stop  offset="0.31" style="stop-color:#7B5829"/>
							<stop  offset="1" style="stop-color:#AF7931"/>
						</linearGradient>
						<path class="st14" d="M98.8,32.3l7.2-12.8c1.6-2.9,2-6.4,0.9-9.5c-1.4-4.1-3.5-8.9-5.3-6.6c-1.6,2-17,7.9-22.6,7.1
							c-8.4-1.3-7.9,6.4-7.9,6.4S69.9,37,64.5,43c2,4.4,3.6,7.7,3.6,7.7L98.8,32.3z"/>
						<path class="st15" d="M79.4,18.9c0,0-2.1-4.7,4.3-5.9c6.4-1.3,17.1-4.1,18-9.6c-13.1,10.4-24.4,7.5-24.4,7.5
							S76.3,17.3,79.4,18.9z"/>
						<path class="st15" d="M102.4,8c0.1-6,1.1,17.5-3.6,24.3s-3.2-4.2-3.2-4.2S102.2,19.9,102.4,8z"/>
						<path class="st15" d="M85,21c0,0,10.7-5.6,16.6-17.7c0.7,7.7-5.6,15.6-10.8,22.8C85.9,32.7,85,21,85,21z"/>
						
							<linearGradient id="SVGID_8_" gradientUnits="userSpaceOnUse" x1="385.534" y1="-426.4955" x2="427.904" y2="-426.4955" gradientTransform="matrix(0.968 -0.2509 0.2509 0.968 -202.126 566.8229)">
							<stop  offset="0" style="stop-color:#7B5829"/>
							<stop  offset="1" style="stop-color:#AF7931"/>
						</linearGradient>
						<path class="st16" d="M69.3,38.5L65,61c0,0,15.4,9,17.9,12.1c2.5,3,7.6,1.6,11.4-3.6s10.8-13.8,12.9-14.8
							c-1.8-3.5-5.8-12.9-6-16.9c-0.2-4-23.6-7.4-23.6-7.4l-4,1L69.3,38.5z"/>
						<path class="st15" d="M86.2,62.8c-3.1,0.5-5.9,2.9-7.5,6.9c2,1.4,3.6,2.6,4.2,3.4C82.9,73.1,82.5,67.2,86.2,62.8z"/>
						<path class="st15" d="M70.6,64.4c1.2,0.7,2.4,1.5,3.7,2.3c1.1-2,2.8-4.3,5.4-6C76.7,60.3,73.4,61.6,70.6,64.4z"/>
						
							<linearGradient id="SVGID_9_" gradientUnits="userSpaceOnUse" x1="404.6202" y1="-423.8156" x2="427.8983" y2="-423.8156" gradientTransform="matrix(0.968 -0.2509 0.2509 0.968 -202.126 566.8229)">
							<stop  offset="0" style="stop-color:#7B5829"/>
							<stop  offset="1" style="stop-color:#AF7931"/>
						</linearGradient>
						<path class="st17" d="M94.3,69.6c3.8-5.2,10.8-13.8,12.9-14.8c-1.8-3.5-5.8-12.9-6-16.9c-0.1-2-5.7-3.8-11.4-5.1
							c1.1,6,3.9,20.8,3.6,22C93,56,91,68.5,88.2,74.4C90.3,73.8,92.5,72.1,94.3,69.6z"/>
						<path class="st18" d="M99.9,38.5c0,0,4.9,1.2,4.8-3.4c-0.1-4.6-5.9-2.8-5.9-2.8L99.9,38.5z"/>
						<path class="st19" d="M102.6,34.1c-0.1,0.3-0.3,0.5-0.6,0.8c-0.2,0.2-0.5,0.4-0.8,0.6c-0.3,0.1-0.6,0.2-0.9,0.3
							c-0.3,0-0.7,0-1,0l0.1-0.5c0.3,0.1,0.6,0.1,0.9,0.1s0.6,0,0.9-0.1c0.3-0.1,0.6-0.2,0.8-0.4C102.2,34.6,102.4,34.4,102.6,34.1z
							"/>
						<path class="st12" d="M78.3,24.8l-2.4,17.7l-2,2.2c0,0,4.7,4.8,5.9,9.9c2.1-0.7,3.8-1.1,9.1-2.3c5.2-1.1,6.7-0.2,6.7-0.2
							l4.8-6.6l0.4-9.3l-1.7-6.2l-0.4-5.3c0,0-3.6-5.3-11.1-4.9C80.1,20.4,78.3,24.8,78.3,24.8z"/>
						<path class="st20" d="M95.5,51.8c-0.7-0.2-2.5-0.6-6.5,0.3l-0.1-4l3.3-1.4l1.1-2l-3.4-7.3l-0.3-16.9c5.5,0.4,8.4,4,8.8,4.6
							l0.4,5.3l1.7,6.2l-0.4,9.2L95.5,51.8z"/>
						<path class="st19" d="M84.4,46.7c0.6,0.2,1.3,0.4,1.9,0.5c0.6,0.1,1.3,0.2,1.9,0.2c0.2,0,0.3,0,0.5,0h0.1l0.1,0
							c0.1,0,0.2,0,0.2,0c0.3,0,0.6-0.1,0.9-0.2c0.3-0.1,0.6-0.2,0.9-0.4c0.3-0.2,0.6-0.3,0.9-0.5c0,0.1-0.1,0.1-0.2,0.2l-0.1,0.1
							l-0.1,0.1c-0.1,0.1-0.1,0.1-0.2,0.2L91.1,47c-0.3,0.2-0.6,0.4-0.9,0.5c-0.1,0-0.2,0.1-0.2,0.1c-0.1,0-0.2,0.1-0.2,0.1
							c-0.1,0-0.2,0-0.2,0.1l-0.2,0c-0.1,0-0.2,0-0.2,0l-0.1,0h-0.1c-0.2,0-0.3,0-0.5,0c-0.7,0-1.4-0.1-2-0.3
							c-0.3-0.1-0.7-0.2-0.9-0.4C84.9,47.1,84.6,46.9,84.4,46.7z"/>
						<line class="st21" x1="92.6" y1="36.6" x2="94.5" y2="36.2"/>
						<line class="st21" x1="85.6" y1="36.6" x2="82.5" y2="36.2"/>
						<path class="st22" d="M73.5,31.4c0,0-4.9-3.5-7,1.7c-2.1,5.2,5.3,5.7,5.3,5.7L73.5,31.4z"/>
						<path class="st19" d="M68.4,35.1c0.3-0.2,0.6-0.5,1-0.6c0.4-0.2,0.7-0.2,1.1-0.3c0.4,0,0.8,0,1.2,0.1c0.4,0.1,0.8,0.3,1.1,0.5
							l-0.3,0.4c-0.3-0.2-0.6-0.4-0.9-0.5c-0.3-0.1-0.7-0.2-1.1-0.2s-0.7,0-1.1,0.2C69.1,34.8,68.7,34.9,68.4,35.1z"/>
						<path class="st20" d="M89.6,18c0.7-0.4,1.3-1,1.9-1.5c0.6-0.5,1.2-1,1.8-1.6c1.1-1.1,2.2-2.3,3.3-3.5c0.5-0.6,1-1.3,1.5-1.9
							c0.1-0.2,0.2-0.3,0.3-0.5l0.2-0.2l0.2-0.2L99,8.1l0.3-0.5c0-0.1,0.1-0.2,0.2-0.2L99.7,7c0.1-0.2,0.2-0.3,0.3-0.5
							c0.2-0.4,0.4-0.7,0.6-1.1c0.4-0.7,0.7-1.4,1-2.2l0.2,0.1c-0.8,0.6-1.7,1.2-2.5,1.7c-0.9,0.5-1.7,1.1-2.6,1.6
							c-0.9,0.5-1.8,1-2.7,1.4S92,9,91.1,9.3c-0.9,0.4-1.9,0.7-2.9,0.9l-0.4,0.1c-0.1,0-0.2,0-0.4,0.1l-0.4,0c-0.1,0-0.1,0-0.2,0
							l-0.2,0l-0.4,0c-0.1,0-0.2,0-0.4,0c-0.1,0-0.2,0-0.4,0h-0.4H79h0l0,0c-0.3-0.1-0.7-0.2-1-0.2c-0.2,0-0.3,0.1-0.4,0.2
							c-0.1,0.1-0.2,0.2-0.3,0.4c-0.1,0.2-0.1,0.3-0.2,0.5c0,0.1,0,0.2,0,0.3c0,0.1,0,0.2,0,0.3c0,0.1,0,0.2,0,0.3v0.3l0,0.5l0,0.5
							v0.5v0.3c0,0.1,0,0.2,0,0.3l0,0.5c0,0.4,0,0.7,0,1.1c0,0.4,0,0.7-0.1,1.1c-0.1,1.5-0.2,2.9-0.4,4.4s-0.3,2.9-0.5,4.4
							c0.1-0.7,0.2-1.5,0.2-2.2s0.1-1.5,0.2-2.2c0.1-1.5,0.2-2.9,0.3-4.4c0-0.4,0-0.7,0.1-1.1c0-0.4,0-0.7,0-1.1l0-0.5
							c0-0.1,0-0.2,0-0.3v-0.3v-0.5l0-0.5l0-0.5v-0.3c0-0.1,0-0.2,0-0.3c0-0.4,0.1-0.8,0.2-1.1c0.1-0.2,0.2-0.3,0.3-0.5
							c0,0,0.1-0.1,0.1-0.1c0,0,0.1,0,0.1-0.1c0.1,0,0.2-0.1,0.3-0.1c0.2,0,0.4,0,0.6,0c0.2,0,0.4,0.1,0.6,0.2l0,0l6.1,0h0.4
							c0.1,0,0.2,0,0.4,0c0.1,0,0.2,0,0.4,0l0.4,0l0.2,0c0.1,0,0.1,0,0.2,0l0.4,0c0.1,0,0.2,0,0.4-0.1l0.4-0.1c1-0.2,2-0.5,2.9-0.9
							c1.9-0.7,3.7-1.6,5.5-2.6c0.9-0.5,1.8-1,2.6-1.6c0.9-0.5,1.7-1.1,2.5-1.7l0.3-0.2l-0.2,0.4l-0.2,0.6l-0.1,0.3
							c0,0.1-0.1,0.2-0.1,0.3L101,5c-0.1,0.2-0.2,0.4-0.3,0.5c-0.2,0.4-0.4,0.7-0.6,1.1c-0.1,0.2-0.2,0.3-0.3,0.5l-0.2,0.3
							c0,0.1-0.1,0.2-0.2,0.2l-0.3,0.5l-0.3,0.5l-0.2,0.2l-0.2,0.2c-0.1,0.2-0.2,0.3-0.3,0.5c-0.5,0.7-1,1.3-1.5,1.9
							c-1,1.2-2.1,2.4-3.3,3.5c-0.6,0.5-1.2,1.1-1.8,1.6C90.9,17.1,90.3,17.6,89.6,18z"/>
						<path class="st20" d="M101.7,3.3c0,0.7-0.1,1.4-0.2,2.1c0,0.2,0,0.3-0.1,0.5c0,0.2,0,0.3-0.1,0.5L101.3,7l-0.1,0.5
							c-0.2,0.7-0.3,1.4-0.6,2c-0.2,0.7-0.4,1.3-0.7,2c-0.5,1.3-1.1,2.6-1.7,3.8c-0.3,0.6-0.7,1.2-1,1.8c-0.4,0.6-0.7,1.2-1.1,1.8
							c0.4-0.6,0.7-1.2,1.1-1.8c0.3-0.6,0.7-1.2,1-1.8c0.6-1.2,1.2-2.5,1.7-3.8c0.2-0.7,0.5-1.3,0.7-2c0.2-0.7,0.4-1.4,0.5-2
							l0.1-0.5l0.1-0.5c0-0.2,0.1-0.3,0.1-0.5s0-0.3,0.1-0.5c0.1-0.7,0.1-1.4,0.2-2.1L101.7,3.3z"/>
						<path class="st20" d="M99.5,22.8c0.4-0.8,0.7-1.5,0.9-2.3c0.3-0.8,0.5-1.6,0.7-2.4c0.4-1.6,0.7-3.2,0.9-4.9
							c0.2-1.6,0.2-3.3,0.2-5c-0.1-1.7-0.3-3.3-0.8-4.9l0.3-0.1c0.4,1.6,0.7,3.3,0.7,4.9c0,1.7,0,3.4-0.2,5c-0.2,1.7-0.6,3.3-1,4.9
							c-0.2,0.8-0.5,1.6-0.7,2.4C100.2,21.3,99.9,22.1,99.5,22.8z"/>
						<path class="st12" d="M93,63l13.2,26l2.9,3l-11.1,16.5l-2.7-5c0,0-9.4-26.8-9.6-35.9c-2.2-0.8-9.2-2.9-11.3-2.9
							c-2.1,0,0.8-11.1,0.8-11.1l-7.2-4.9c-1-0.7-1.3-2-0.7-3l0,0c0.6-1.1,2-1.4,3-0.8c4.6,2.5,17.1,9.6,17.9,11.2
							c0.5-2.2,0.8-4.4,0.8-6.6l1.4-0.9c0.7-0.5,1.7-0.2,2.1,0.5c0.2,0.2,0.2,0.5,0.2,0.8L93,63z"/>
						<path class="st23" d="M106.2,117.7l6.1-19.7l1.2-0.8l-2.1-4.5l-3.2-4.9l-2,1.3l1,1.4c0,0-7.2,16.4-10.2,15.5
							c-0.9-0.2-1.8-2.3-1.8-2.3l-0.6,2.6l3.7,6.2l1.4-0.5l0.1,1.2l2.6,1.8l0.3,1.4L106.2,117.7z"/>
						<polygon class="st23" points="78.3,105.6 84.6,112.8 90.4,123.1 86.3,127 81.4,130.1 76.6,124.4 73.5,117.7 68.9,110.3 
							73.8,108.6 						"/>
						<polygon class="st24" points="70.4,110.8 74.1,109.4 76.9,110.8 						"/>
						<path class="st24" d="M76.3,121.4l3.3,4.9c0,0,3.2,1.8,5,0.8c-1-1.4-4.2-5.7-4.2-5.7H76.3z"/>
						<polygon class="st24" points="82.1,121.4 85.7,125.6 89.4,123 87,119.2 						"/>
						<polygon class="st24" points="80.5,127.4 81.5,129 83.1,128.2 						"/>
						<path class="st11" d="M67.6,135.3c3.5-1.5,12.2-7.1,12.2-7.1l1.6,2l5.5-3.8l-3.5,5.5c0,0-11.9,4.9-12.1,8.5
							c-0.3,3.6-1.8,15.8-1.8,15.8s16.3-0.1,17.4,0c1.1,0.1,3,4.3,3,4.3s-23.1-0.1-27.1-2.3C64.4,155.3,69.3,141.5,67.6,135.3z"/>
						<path class="st25" d="M59.7,117.4c0,0,7.4-4.6,10.5-4.9"/>
						<path class="st25" d="M67.6,135.3c0,0,10.4-5.4,12.2-7.1"/>
						<path class="st11" d="M76.3,130.1c0,0-13.6,6.1-14,5.2c1.4-1.7,2.9-2.9,2.6-4.1c-5.2,4.2-9.4,4-10.9,0.5
							c-1.4-3.5-1.8,2.1-0.5,3.7c1.4,1.6,3,3.5,4.7,3.2C60,138.3,71.8,134.4,76.3,130.1z"/>
						<path class="st11" d="M61.1,116.6c0,0,5.7-14.6,5.1-19.3c1.1,7.6,2,15.7,2,15.7L61.1,116.6z"/>
						<path class="st25" d="M90,160.4c0,0,5.8-18.5,4.6-45.5"/>
						<path class="st25" d="M92.4,160.4c0,0,5.8-18.5,4.6-45.5"/>
						<path class="st25" d="M62.9,66c1.9,3.3,7.7,13.3,2.6,27.9c0,0,2.9,14.6,2.7,19.1c-0.2,4.5,0.7-7.4,0.7-7.4"/>
						<path class="st25" d="M106.1,51.7c0,0,2.6,18.6,4.3,26.3c2.2,10,2.1,16.9,2.1,16.9"/>
						<path class="st13" d="M99.8,105.8C96.2,98.1,89,80.8,89,67.3l-11.3-1.9c2.8,0.7,6.4,1.8,7.9,2.3c0.3,9.1,9.6,35.9,9.6,35.9
							l2,3.6l1.1,0.7L99.8,105.8z"/>
						<path class="st13" d="M74.3,64.8c0.7,0,2,0.2,3.4,0.6V55.2l-2.6-1.6C75.1,53.6,72.2,64.8,74.3,64.8z"/>
						<path class="st11" d="M72.7,90.9c0,0,4.4,5.2,9.9,5.4c5.5,0.2-6.9,0.9-6.9,0.9S71.1,96,72.7,90.9z"/>
						<path class="st11" d="M72.9,81.2c0,0,2,7.4,7.9,11.4c5.9,4-8-3.9-8-3.9S68.5,84.4,72.9,81.2z"/>
					</g>
				</g>
			</g>
			
				<linearGradient id="SVGID_10_" gradientUnits="userSpaceOnUse" x1="192.3249" y1="-218.002" x2="347.5776" y2="-218.002" gradientTransform="matrix(1 0 0 1 -179.94 327.7023)">
				<stop  offset="0" style="stop-color:#1B364A"/>
				<stop  offset="1" style="stop-color:#16547E"/>
			</linearGradient>
			<path class="st26" d="M132.4,40.3c20.2,13.6,33.4,36.7,33.4,62.8c0,41.9-33.9,75.8-75.8,75.8s-75.8-33.9-75.8-75.8
				c0-22.3,9.6-42.3,24.9-56.2"/>
			
				<linearGradient id="SVGID_11_" gradientUnits="userSpaceOnUse" x1="145.2144" y1="-204.0623" x2="177.8855" y2="-204.0623" gradientTransform="matrix(1 0 0 1 0 367.1423)">
				<stop  offset="0" style="stop-color:#1B364A"/>
				<stop  offset="1" style="stop-color:#16547E"/>
			</linearGradient>
			<line class="st27" x1="147.6" y1="152.7" x2="175.5" y2="173.5"/>
		</g>
	</g>
</g>
</svg>
